<?xml version="1.0" encoding="UTF-8" standalone="no"?>
<!-- Created with Inkscape (http://www.inkscape.org/) -->

<svg
   xmlns:dc="http://purl.org/dc/elements/1.1/"
   xmlns:cc="http://creativecommons.org/ns#"
   xmlns:rdf="http://www.w3.org/1999/02/22-rdf-syntax-ns#"
   xmlns:svg="http://www.w3.org/2000/svg"
   xmlns="http://www.w3.org/2000/svg"
   xmlns:sodipodi="http://sodipodi.sourceforge.net/DTD/sodipodi-0.dtd"
   xmlns:inkscape="http://www.inkscape.org/namespaces/inkscape"
   id="svg9481"
   version="1.1"
   inkscape:version="0.91 r13725"
   width="701.6875"
   height="223.23961"
   viewBox="0 0 701.68752 223.23961"
   sodipodi:docname="grapefruit.svg"
   inkscape:export-filename="C:\Users\MAD\Desktop\g4147.png"
   inkscape:export-xdpi="206.41498"
   inkscape:export-ydpi="206.41498">
  <metadata
     id="metadata9487">
    <rdf:RDF>
      <cc:Work
         rdf:about="">
        <dc:format>image/svg+xml</dc:format>
        <dc:type
           rdf:resource="http://purl.org/dc/dcmitype/StillImage" />
        <dc:title></dc:title>
      </cc:Work>
    </rdf:RDF>
  </metadata>
  <defs
     id="defs9485">
    <inkscape:perspective
       sodipodi:type="inkscape:persp3d"
       inkscape:vp_x="0 : 111.6198 : 1"
       inkscape:vp_y="0 : 1000 : 0"
       inkscape:vp_z="701.68752 : 111.6198 : 1"
       inkscape:persp3d-origin="350.84376 : 74.413203 : 1"
       id="perspective4200" />
  </defs>
  <sodipodi:namedview
     pagecolor="#ffffff"
     bordercolor="#666666"
     borderopacity="1"
     objecttolerance="10"
     gridtolerance="10"
     guidetolerance="10"
     inkscape:pageopacity="0"
     inkscape:pageshadow="2"
     inkscape:window-width="1920"
     inkscape:window-height="1137"
     id="namedview9483"
     showgrid="false"
     fit-margin-top="0"
     fit-margin-left="0"
     fit-margin-right="0"
     fit-margin-bottom="0"
     inkscape:zoom="2.8284271"
     inkscape:cx="171.98093"
     inkscape:cy="131.93098"
     inkscape:window-x="-8"
     inkscape:window-y="-8"
     inkscape:window-maximized="1"
     inkscape:current-layer="svg9481" />
  <flowRoot
     xml:space="preserve"
     id="flowRoot4160"
     style="font-style:normal;font-weight:normal;font-size:40px;line-height:125%;font-family:sans-serif;letter-spacing:0px;word-spacing:0px;fill:#000000;fill-opacity:1;stroke:none;stroke-width:1px;stroke-linecap:butt;stroke-linejoin:miter;stroke-opacity:1"><flowRegion
       id="flowRegion4162"><rect
         id="rect4164"
         width="216.52846"
         height="173.22276"
         x="1396.6085"
         y="502.01999" /></flowRegion><flowPara
       id="flowPara4166"></flowPara></flowRoot>  <g
     id="g4192">
    <path
       id="flowRoot4144"
       d="m 542.20508,86.892578 c -0.75,0 -1.5,0.03633 -2.25,0.111328 -0.675,0 -1.425,0.03828 -2.25,0.113282 l 0,0.113281 c -1.35,0.15 -2.70078,0.412109 -4.05078,0.787109 -1.35,0.3 -2.6625,0.711328 -3.9375,1.236328 -0.975,0.45 -1.87422,0.937891 -2.69922,1.462891 -0.825,0.525 -1.61328,1.162109 -2.36328,1.912109 -0.75,0.75 -1.42539,1.576563 -2.02539,2.476563 -0.6,0.825 -1.08594,1.762501 -1.46094,2.812501 -0.45,0.9 -0.78867,1.8375 -1.01367,2.8125 -0.225,0.975 -0.37422,1.94883 -0.44922,2.92383 l 0,59.73828 9.5625,0 0,-43.20117 16.19922,0 0,-9.22461 -16.19922,0 0,-7.65039 0,-0.5625 0.22461,-0.67383 c 0.075,-0.225 0.11328,-0.4125 0.11328,-0.5625 l 0.22461,-0.67578 c 0.15,-0.375 0.3375,-0.67539 0.5625,-0.90039 0.225,-0.3 0.48711,-0.59844 0.78711,-0.89844 0.525,-0.525 1.0875,-0.97656 1.6875,-1.35156 0.6,-0.45 1.23711,-0.86133 1.91211,-1.23633 l 3.48828,-0.562502 8.32422,0 0,-8.662109 c -0.75,-0.15 -1.5,-0.226563 -2.25,-0.226563 -0.675,-0.075 -1.38672,-0.111328 -2.13672,-0.111328 z m -289.80469,0.337891 c -1.05,0 -2.09844,0.03633 -3.14844,0.111328 l -3.03906,0 0,0.113281 c -1.875,0.3 -3.75,0.749609 -5.625,1.34961 -1.875,0.525 -3.67344,1.162109 -5.39844,1.912109 -1.725,0.675 -3.37617,1.537891 -4.95117,2.587891 -1.575,0.975 -3.03672,2.099999 -4.38672,3.375002 -1.725,1.425 -3.29961,3.03789 -4.72461,4.83789 -1.35,1.725 -2.51328,3.63633 -3.48828,5.73633 -1.125,2.925 -2.10078,5.925 -2.92578,9 -0.75,3 -1.3125,6.07656 -1.6875,9.22656 0.15,2.7 0.48867,5.36133 1.01367,7.98633 0.6,2.625 1.35,5.21367 2.25,7.76367 0.975,2.1 2.06172,4.08594 3.26172,5.96094 1.275,1.8 2.66211,3.52578 4.16211,5.17578 1.5,1.575 3.11289,3.00039 4.83789,4.27539 1.8,1.275 3.63867,2.43633 5.51367,3.48633 1.8,0.975 3.63672,1.76328 5.51172,2.36328 1.95,0.6 3.89961,1.01328 5.84961,1.23828 l 11.13867,0.22461 0.67383,0 c 0.3,0 0.56211,-0.0383 0.78711,-0.11328 0.225,0 0.45078,-0.0363 0.67578,-0.11133 l 0.78711,0 c 1.875,-0.225 3.71367,-0.6 5.51367,-1.125 1.875,-0.6 3.63711,-1.35 5.28711,-2.25 1.95,-0.9 3.75039,-1.95039 5.40039,-3.15039 1.725,-1.2 3.29961,-2.5125 4.72461,-3.9375 1.275,-1.35 2.43633,-2.73711 3.48633,-4.16211 1.05,-1.5 1.95117,-3.07656 2.70117,-4.72656 0.9,-1.725 1.65,-3.44883 2.25,-5.17383 0.6,-1.8 0.975,-3.675 1.125,-5.625 l 0,-13.05078 -36.5625,0 0,9.90039 26.09961,0.11328 c 0.15,1.65 0.0371,3.26094 -0.33789,4.83594 -0.3,1.5 -0.82422,3 -1.57422,4.5 -0.825,1.65 -1.83711,3.22656 -3.03711,4.72656 -1.125,1.5 -2.4375,2.88711 -3.9375,4.16211 -1.425,1.2 -2.96328,2.25039 -4.61328,3.15039 -1.65,0.825 -3.37578,1.49844 -5.17578,2.02344 -0.675,0.225 -1.34844,0.4125 -2.02344,0.5625 -0.6,0.15 -1.23906,0.26289 -1.91406,0.33789 -0.675,0.15 -1.34844,0.26289 -2.02344,0.33789 l -1.91406,0 -0.89844,0 c -0.225,0 -0.45078,-0.0383 -0.67578,-0.11328 l -0.90039,0 c -0.225,-0.075 -0.48711,-0.11133 -0.78711,-0.11133 -1.875,-0.15 -3.71172,-0.48867 -5.51172,-1.01367 -1.8,-0.525 -3.56406,-1.23672 -5.28906,-2.13672 -1.65,-0.975 -3.18633,-2.06172 -4.61133,-3.26172 -1.35,-1.2 -2.62617,-2.5125 -3.82617,-3.9375 -1.2,-1.5 -2.24844,-3.07656 -3.14844,-4.72656 -0.9,-1.65 -1.65,-3.3375 -2.25,-5.0625 -0.675,-1.8 -1.12656,-3.63672 -1.35156,-5.51172 -0.225,-1.875 -0.29961,-3.75 -0.22461,-5.625 0.15,-1.95 0.45039,-3.86328 0.90039,-5.73828 0.45,-1.875 1.05078,-3.75 1.80078,-5.625 0.825,-1.725 1.83711,-3.29961 3.03711,-4.72461 1.2,-1.5 2.5125,-2.84883 3.9375,-4.04883 1.5,-1.275 3.03633,-2.36367 4.61133,-3.26367 1.65,-0.975 3.3375,-1.725 5.0625,-2.25 1.425,-0.525 2.85039,-0.9 4.27539,-1.125 1.5,-0.225 2.96367,-0.33789 4.38867,-0.33789 l 1.23633,0 c 0.45,0 0.86328,0.0383 1.23828,0.11328 1.875,0.075 3.71172,0.33711 5.51172,0.78711 1.875,0.45 3.63711,1.08711 5.28711,1.91211 1.05,0.525 2.06406,1.0875 3.03906,1.6875 0.975,0.6 1.94883,1.23906 2.92383,1.91406 0.975,0.75 1.9125,1.53633 2.8125,2.36133 0.9,0.75 1.76289,1.5 2.58789,2.25 l 6.75,-7.08789 c -0.45,-0.6 -0.93789,-1.1625 -1.46289,-1.6875 -0.525,-0.6 -1.0875,-1.1625 -1.6875,-1.6875 -1.8,-1.500004 -3.71133,-2.848832 -5.73633,-4.048832 -1.95,-1.2 -4.0125,-2.288672 -6.1875,-3.263672 -1.425,-0.6 -2.925,-1.124219 -4.5,-1.574218 -1.575,-0.450001 -3.18789,-0.71211 -4.83789,-0.78711 -0.975,-0.075 -1.98711,-0.113281 -3.03711,-0.113281 -1.05,-0.075 -2.06406,-0.111328 -3.03906,-0.111328 z m 393.96484,6.298828 0,0.113281 -0.44921,0 c -0.15,0 -0.30118,0.03633 -0.45118,0.111328 -0.375,0 -0.78632,0.112891 -1.23632,0.337891 -0.375,0.15 -0.75,0.3375 -1.125,0.5625 -0.75,0.75 -1.3125,1.574613 -1.6875,2.474613 -0.375,0.9 -0.60079,1.87578 -0.67579,2.92578 l 0,0.33789 c 0,0.075 0.0383,0.14961 0.11329,0.22461 l 0,0.33789 0,0.22461 c 0.225,0.525 0.4871,1.04922 0.7871,1.57422 0.375,0.45 0.78829,0.86328 1.23829,1.23828 0.45,0.3 0.89961,0.56211 1.34961,0.78711 0.525,0.225 1.04921,0.37617 1.57421,0.45117 0.675,0 1.3504,-0.0383 2.02539,-0.11328 0.675,-0.15 1.31211,-0.3375 1.91211,-0.5625 0.45,-0.3 0.825,-0.63672 1.125,-1.01172 0.375,-0.375 0.71368,-0.78828 1.01368,-1.23828 0.075,-0.225 0.14961,-0.4125 0.22461,-0.5625 0.075,-0.225 0.14961,-0.4125 0.2246,-0.5625 l 0,-0.44922 c 0.075,-0.225 0.11329,-0.45078 0.11329,-0.67578 l 0,-0.33789 0,-0.33789 c 0,-0.075 -0.0383,-0.14961 -0.11329,-0.22461 l 0,-0.33789 c 0,-0.15 -0.0383,-0.26094 -0.11328,-0.33594 l 0,-0.45117 c -0.15,-0.375 -0.3375,-0.75 -0.5625,-1.125 -0.15,-0.375 -0.3375,-0.71172 -0.5625,-1.011722 -0.525,-0.75 -1.19843,-1.3125 -2.02343,-1.6875 -0.825,-0.45 -1.72618,-0.675781 -2.70118,-0.675781 z m 22.54493,4.275393 0,49.16211 0,1.34961 c 0,0.375 0.0363,0.75 0.11132,1.125 l 0,1.23828 c 0.075,0.375 0.14961,0.78828 0.22461,1.23828 0.15,0.9 0.37578,1.79922 0.67579,2.69922 0.375,0.825 0.8246,1.64961 1.3496,2.47461 0.6,0.975 1.31368,1.83789 2.13868,2.58789 0.9,0.75 1.8375,1.38711 2.8125,1.91211 0.825,0.525 1.72421,0.93828 2.69922,1.23828 0.975,0.3 1.95078,0.4875 2.92578,0.5625 l 15.63672,0 0,-8.55078 -12.48829,0.11328 c -0.75,-0.075 -1.53632,-0.22617 -2.36132,-0.45117 -0.75,-0.225 -1.42539,-0.56172 -2.02539,-1.01172 -0.45,-0.375 -0.82501,-0.82461 -1.125,-1.34961 -0.225,-0.525 -0.41251,-1.0875 -0.5625,-1.6875 0,-0.15 -0.0383,-0.26289 -0.11329,-0.33789 l 0,-0.5625 0,-29.58789 18.90039,0 0,-8.66211 -19.125,0 0,-13.5 -9.67382,0 z m -189.5625,12.48828 0,0.11133 c -1.875,0.075 -3.71368,0.37539 -5.51368,0.90039 -1.725,0.45 -3.4125,1.12539 -5.0625,2.02539 -1.65,0.9 -3.18632,1.98672 -4.61132,3.26172 -1.35,1.2 -2.55157,2.55078 -3.60157,4.05078 -0.975,1.575 -1.79961,3.22422 -2.47461,4.94922 -0.675,1.65 -1.19921,3.37578 -1.57421,5.17578 -0.15,0.75 -0.30118,1.57461 -0.45118,2.47461 -0.075,0.825 -0.11132,1.64961 -0.11132,2.47461 -0.075,0.375 -0.11329,0.78828 -0.11329,1.23828 l 0,1.23633 0,1.6875 c 0,0.525 0.0383,1.0875 0.11329,1.6875 0.825,3.525 2.1375,6.86367 3.9375,10.01367 1.875,3.075 4.1996,5.77461 6.97461,8.09961 1.49999,1.05 3.11289,1.94922 4.83789,2.69922 1.725,0.675 3.4871,1.08828 5.28711,1.23828 0.89999,0.15 1.79921,0.26289 2.69921,0.33789 0.9,0.075 1.80118,0.11133 2.70118,0.11133 l 1.34961,0 1.46289,0 1.34961,-0.22461 1.3496,-0.22461 c 1.8,-0.225 3.52579,-0.67461 5.17579,-1.34961 1.725,-0.675 3.37421,-1.53789 4.94921,-2.58789 1.5,-1.05 2.88711,-2.21328 4.16211,-3.48828 1.275,-1.35 2.4,-2.81172 3.375,-4.38672 0.975,-1.575 1.76328,-3.22422 2.36329,-4.94922 0.59999,-1.725 0.97499,-3.56367 1.125,-5.51367 l -9.44922,-1.91211 c -0.075,1.2 -0.2625,2.39961 -0.5625,3.59961 -0.225,1.125 -0.56368,2.25 -1.01368,3.375 -0.525,0.975 -1.16211,1.9125 -1.9121,2.8125 -0.75,0.825 -1.6129,1.575 -2.5879,2.25 -0.9,0.6 -1.8375,1.1625 -2.8125,1.6875 -0.975,0.525 -1.9871,0.97461 -3.0371,1.34961 -0.75001,0.225 -1.53829,0.37617 -2.36329,0.45117 -0.75,0.075 -1.53632,0.11133 -2.36132,0.11133 -1.425,0 -2.85039,-0.14922 -4.27539,-0.44922 -1.35001,-0.3 -2.66251,-0.78789 -3.9375,-1.46289 -1.425,-0.9 -2.77579,-1.95039 -4.05079,-3.15039 -1.2,-1.275 -2.21211,-2.62383 -3.03711,-4.04883 -0.9,-1.5 -1.61171,-3.03828 -2.13671,-4.61328 -0.45,-1.65 -0.71211,-3.3375 -0.78711,-5.0625 l 0,-1.57422 c 0,-0.6 0.0363,-1.1625 0.11132,-1.6875 l 0.22461,-1.57617 c 0.15,-0.6 0.30118,-1.1625 0.45118,-1.6875 0.75,-2.4 1.98789,-4.49883 3.71289,-6.29883 1.725,-1.8 3.74921,-3.07617 6.07422,-3.82617 1.05,-0.375 2.10039,-0.63711 3.15039,-0.78711 1.125,-0.225 2.25,-0.33789 3.375,-0.33789 1.2,0.075 2.36132,0.2625 3.48632,0.5625 1.2,0.3 2.325,0.675 3.375,1.125 1.05,0.525 1.95118,1.12578 2.70118,1.80078 0.825,0.675 1.575,1.38672 2.25,2.13672 l -25.08789,14.51367 4.38671,7.65039 34.3125,-19.57617 c -0.9,-1.95 -1.98672,-3.75039 -3.26171,-5.40039 -1.2,-1.65 -2.58711,-3.18633 -4.16211,-4.61133 -1.425,-1.125 -2.96329,-2.10078 -4.61329,-2.92578 -1.65,-0.9 -3.3375,-1.61172 -5.0625,-2.13672 -1.125,-0.375 -2.32461,-0.63711 -3.5996,-0.78711 -1.2,-0.225 -2.39961,-0.37617 -3.59961,-0.45117 -0.6,-0.075 -1.20079,-0.11133 -1.80079,-0.11133 l -1.79882,0 z m -154.67774,0.5625 c -0.75,0 -1.5,0.0746 -2.25,0.22461 -0.675,0.075 -1.38672,0.18789 -2.13672,0.33789 -0.975,0.15 -1.95078,0.41211 -2.92578,0.78711 -0.975,0.375 -1.87422,0.82461 -2.69922,1.34961 -0.9,0.525 -1.72656,1.16211 -2.47656,1.91211 -0.675,0.75 -1.31211,1.5 -1.91211,2.25 l 0,-6.41211 -9,0 0,52.08789 9.5625,0 0,-28.01367 c 0,-1.2 0.0746,-2.36133 0.22461,-3.48633 0.15,-1.2 0.37578,-2.39961 0.67578,-3.59961 0.375,-1.05 0.86289,-1.9875 1.46289,-2.8125 0.6,-0.9 1.27539,-1.72656 2.02539,-2.47656 0.825,-0.675 1.64961,-1.2375 2.47461,-1.6875 0.9,-0.525 1.8375,-0.93633 2.8125,-1.23633 1.05,-0.3 2.13672,-0.4875 3.26172,-0.5625 1.125,-0.15 2.25,-0.22461 3.375,-0.22461 l 0,-8.21289 -0.67383,0 c -0.15,-0.075 -0.3375,-0.11328 -0.5625,-0.11328 -0.225,-0.075 -0.45078,-0.11133 -0.67578,-0.11133 l -0.5625,0 z m 248.29102,0 c -0.75,0 -1.5,0.0746 -2.25,0.22461 -0.675,0.075 -1.38672,0.18789 -2.13672,0.33789 -0.975,0.15 -1.95078,0.41211 -2.92578,0.78711 -0.975,0.375 -1.87422,0.82461 -2.69922,1.34961 -0.9,0.525 -1.72656,1.16211 -2.47656,1.91211 -0.675,0.75 -1.31211,1.5 -1.91211,2.25 l 0,-6.41211 -9,0 0,52.08789 9.5625,0 0,-28.01367 c 0,-1.2 0.0746,-2.36133 0.22461,-3.48633 0.15,-1.2 0.37578,-2.39961 0.67578,-3.59961 0.375,-1.05 0.86289,-1.9875 1.46289,-2.8125 0.6,-0.9 1.27539,-1.72656 2.02539,-2.47656 0.825,-0.675 1.64961,-1.2375 2.47461,-1.6875 0.9,-0.525 1.8375,-0.93633 2.8125,-1.23633 1.05,-0.3 2.13672,-0.4875 3.26172,-0.5625 1.125,-0.15 2.25,-0.22461 3.375,-0.22461 l 0,-8.21289 -0.67383,0 c -0.15,-0.075 -0.3375,-0.11328 -0.5625,-0.11328 -0.225,-0.075 -0.45078,-0.11133 -0.67578,-0.11133 l -0.5625,0 z m -214.27149,0.11133 0,0.11328 c -1.65,-0.075 -3.30117,-3.9e-4 -4.95117,0.22461 -1.65,0.225 -3.26094,0.56172 -4.83594,1.01172 -1.275,0.3 -2.55117,0.75156 -3.82617,1.35156 -1.2,0.6 -2.325,1.31172 -3.375,2.13672 -1.05,0.75 -2.06211,1.57461 -3.03711,2.47461 -0.9,0.9 -1.76289,1.87578 -2.58789,2.92578 -0.825,1.2 -1.575,2.47422 -2.25,3.82422 -0.675,1.275 -1.2375,2.62578 -1.6875,4.05078 -0.375,1.35 -0.67539,2.73711 -0.90039,4.16211 -0.225,1.35 -0.33594,2.73711 -0.33594,4.16211 0,1.575 0.11094,3.14961 0.33594,4.72461 0.225,1.5 0.56367,3 1.01367,4.5 0.45,1.275 1.0125,2.55117 1.6875,3.82617 0.675,1.2 1.425,2.36133 2.25,3.48633 0.825,1.05 1.72422,2.06406 2.69922,3.03906 0.975,0.9 1.98711,1.76094 3.03711,2.58594 1.2,0.9 2.43789,1.68828 3.71289,2.36328 1.35,0.675 2.73711,1.16289 4.16211,1.46289 0.825,0.225 1.65156,0.37422 2.47656,0.44922 0.9,0.15 1.79922,0.26289 2.69922,0.33789 l 1.23828,0 c 0.45,0 0.89961,-0.0383 1.34961,-0.11328 2.175,-0.15 4.27383,-0.56133 6.29883,-1.23633 2.025,-0.675 3.9,-1.65078 5.625,-2.92578 l 0,-10.79883 c -0.6,0.9 -1.35,1.76094 -2.25,2.58594 -0.825,0.75 -1.72422,1.42539 -2.69922,2.02539 -0.9,0.525 -1.8375,0.93828 -2.8125,1.23828 -0.9,0.3 -1.87578,0.4875 -2.92578,0.5625 l -0.33594,0 -0.33789,0 c -0.075,0.075 -0.18789,0.11133 -0.33789,0.11133 l -0.33789,0 c -0.9,0 -1.79922,-0.0746 -2.69922,-0.22461 -0.9,-0.15 -1.76289,-0.37383 -2.58789,-0.67383 -1.05,-0.3 -2.06211,-0.71328 -3.03711,-1.23828 -0.975,-0.525 -1.87617,-1.16211 -2.70117,-1.91211 -0.75,-0.75 -1.46172,-1.53828 -2.13672,-2.36328 -0.675,-0.9 -1.27578,-1.8375 -1.80078,-2.8125 -0.525,-1.05 -0.93633,-2.10039 -1.23633,-3.15039 -0.3,-1.125 -0.4875,-2.25 -0.5625,-3.375 l -0.22461,-0.67383 0,-0.90039 0,-0.78711 0,-0.78711 c 0,-1.95 0.26211,-3.825 0.78711,-5.625 0.525,-1.8 1.275,-3.4875 2.25,-5.0625 1.275,-1.95 2.92422,-3.45 4.94922,-4.5 2.025,-1.125 4.20039,-1.72578 6.52539,-1.80078 l 0.67578,0 c 0.3,-0.075 0.56211,-0.11328 0.78711,-0.11328 0.225,-0.075 0.44883,-0.11133 0.67383,-0.11133 l 0.78906,0 c 0.6,0 1.19883,0.0363 1.79883,0.11133 0.675,0 1.27578,0.0766 1.80078,0.22656 2.25,0.375 4.3125,1.19961 6.1875,2.47461 1.875,1.275 3.375,2.88789 4.5,4.83789 0.6,0.975 1.04961,2.02344 1.34961,3.14844 0.375,1.125 0.60078,2.21367 0.67578,3.26367 l 0,29.8125 9.22461,0 0,-32.0625 c -0.3,-2.625 -1.05,-5.10078 -2.25,-7.42578 -1.2,-2.4 -2.77461,-4.49883 -4.72461,-6.29883 -0.75,-0.75 -1.53828,-1.38906 -2.36328,-1.91406 -0.825,-0.6 -1.72422,-1.08594 -2.69922,-1.46094 -1.65,-0.975 -3.41406,-1.725 -5.28906,-2.25 -1.8,-0.525 -3.63672,-0.82539 -5.51172,-0.90039 l -1.01172,0 c -0.3,0 -0.60039,-0.0383 -0.90039,-0.11328 z m 61.39453,0 0,0.11328 c -1.65,0 -3.29921,0.14922 -4.94921,0.44922 -1.575,0.225 -3.11329,0.63828 -4.61329,1.23828 -1.5,0.6 -2.96171,1.35 -4.38671,2.25 -1.35,0.9 -2.5879,1.91211 -3.71289,3.03711 -1.20001,1.125 -2.2504,2.36289 -3.1504,3.71289 -0.9,1.275 -1.7246,2.66211 -2.4746,4.16211 -0.675,1.425 -1.20118,2.96328 -1.57618,4.61328 -0.375,1.575 -0.59882,3.14961 -0.67382,4.72461 l 0,51.52539 9.2246,0 0,-47.25 c 0,-1.8 0.14922,-3.56406 0.44922,-5.28906 0.3,-1.725 0.71328,-3.4125 1.23828,-5.0625 1.125,-2.625 2.77422,-4.79844 4.94922,-6.52344 2.175,-1.725 4.65078,-2.85 7.42578,-3.375 l 0.67579,0 c 0.225,-0.075 0.44882,-0.11328 0.67382,-0.11328 0.15,-0.075 0.3375,-0.11328 0.5625,-0.11328 l 0.67579,0 c 0.74999,0 1.46171,0.0766 2.13671,0.22656 0.75,0.075 1.5,0.18594 2.25,0.33594 1.2,0.225 2.325,0.6 3.375,1.125 1.05,0.45 2.06211,1.0125 3.03711,1.6875 0.975,0.975 1.87618,2.02539 2.70118,3.15039 0.9,1.125 1.7246,2.28828 2.4746,3.48828 0.6,1.5 1.01329,3.03633 1.23829,4.61133 0.225,1.575 0.26132,3.18789 0.11132,4.83789 0.075,2.55 -0.44921,5.02578 -1.57421,7.42578 -1.12501,2.325 -2.7379,4.27461 -4.8379,5.84961 -0.975,0.75 -2.02539,1.42539 -3.15039,2.02539 -1.05,0.525 -2.21132,0.93633 -3.48632,1.23633 -0.3,0.075 -0.63868,0.15156 -1.01368,0.22656 -0.375,0.075 -0.71172,0.11133 -1.01171,0.11133 -0.375,0.075 -0.75,0.11328 -1.125,0.11328 l -1.01368,0 c -0.75,0.075 -1.5,0.075 -2.25,0 -0.675,-0.15 -1.38672,-0.30117 -2.13672,-0.45117 -1.575,-0.375 -3.075,-0.89922 -4.5,-1.57422 -1.425,-0.75 -2.7375,-1.6875 -3.9375,-2.8125 l 0,9.5625 c 1.275,1.125 2.70039,1.98789 4.2754,2.58789 1.57499,0.6 3.22421,0.975 4.94921,1.125 0.375,0.075 0.71368,0.11133 1.01368,0.11133 0.3,0.075 0.63671,0.11328 1.01171,0.11328 l 0.9004,0 1.01171,0 1.34961,0 c 0.525,0 1.05118,-0.0383 1.57618,-0.11328 0.52499,-0.075 1.01289,-0.14961 1.46289,-0.22461 0.525,0 1.01093,-0.0746 1.46093,-0.22461 1.575,-0.15 3.11328,-0.48672 4.61328,-1.01172 1.575,-0.6 3.03672,-1.35 4.38672,-2.25 1.35,-0.975 2.58789,-2.02539 3.71289,-3.15039 1.125,-1.2 2.10078,-2.5125 2.92579,-3.9375 0.975,-1.425 1.7996,-2.925 2.4746,-4.5 0.675,-1.575 1.19922,-3.18789 1.57422,-4.83789 0.3,-1.05 0.4875,-2.10039 0.5625,-3.15039 0.15,-1.125 0.22657,-2.25 0.22657,-3.375 l 0,-0.90039 c 0,-0.3 -0.0383,-0.59844 -0.11329,-0.89844 0,-0.3 -0.0383,-0.60039 -0.11328,-0.90039 l 0,-0.90039 c -0.15,-1.65 -0.44843,-3.22461 -0.89843,-4.72461 -0.45,-1.575 -1.0125,-3.075 -1.6875,-4.5 -1.65,-2.85 -3.75079,-5.32578 -6.30079,-7.42578 -2.475,-2.175 -5.24921,-3.82422 -8.32421,-4.94922 -1.575,-0.45 -3.1879,-0.75039 -4.83789,-0.90039 -1.57501,-0.225 -3.1879,-0.33789 -4.8379,-0.33789 z m 160.6836,0.33789 0,34.65039 c 0.075,1.275 0.2625,2.51289 0.5625,3.71289 0.375,1.2 0.86289,2.36133 1.46289,3.48633 0.45,0.975 1.0125,1.9125 1.6875,2.8125 0.675,0.9 1.38672,1.76289 2.13672,2.58789 0.9,0.825 1.87578,1.575 2.92578,2.25 1.05,0.675 2.175,1.2375 3.375,1.6875 0.975,0.45 1.94883,0.75039 2.92383,0.90039 1.05,0.225 2.10039,0.37422 3.15039,0.44922 0.6,0.15 1.23711,0.22461 1.91211,0.22461 0.675,0.075 1.35039,0.11328 2.02539,0.11328 0.675,0 1.35039,-0.0383 2.02539,-0.11328 0.675,0 1.35039,-0.0746 2.02539,-0.22461 1.2,-0.075 2.36133,-0.2625 3.48633,-0.5625 1.125,-0.3 2.17539,-0.71133 3.15039,-1.23633 1.05,-0.525 2.06211,-1.12578 3.03711,-1.80078 0.975,-0.675 1.87617,-1.425 2.70117,-2.25 0.825,-0.825 1.53672,-1.68789 2.13672,-2.58789 0.675,-0.975 1.2375,-1.94883 1.6875,-2.92383 0.525,-1.05 0.93828,-2.10039 1.23828,-3.15039 0.3,-1.125 0.4875,-2.28828 0.5625,-3.48828 l 0,-34.53711 -9.67578,0 0,31.38672 c -0.075,0.825 -0.18789,1.65156 -0.33789,2.47656 -0.075,0.825 -0.22422,1.64961 -0.44922,2.47461 -0.3,0.9 -0.71328,1.76289 -1.23828,2.58789 -0.45,0.75 -1.04883,1.42344 -1.79883,2.02344 -0.675,0.6 -1.425,1.12617 -2.25,1.57617 -0.825,0.45 -1.68789,0.825 -2.58789,1.125 -0.525,0.075 -1.0875,0.14961 -1.6875,0.22461 -0.525,0.075 -1.0875,0.14961 -1.6875,0.22461 -0.45,0 -0.89961,-0.0363 -1.34961,-0.11133 l -1.34961,-0.22656 c -0.75,0 -1.53828,-0.11094 -2.36328,-0.33594 -0.75,-0.225 -1.5,-0.52539 -2.25,-0.90039 -0.9,-0.6 -1.72461,-1.31367 -2.47461,-2.13867 -0.675,-0.825 -1.27578,-1.72422 -1.80078,-2.69922 -0.45,-1.05 -0.78672,-2.10039 -1.01172,-3.15039 -0.225,-1.05 -0.33789,-2.13672 -0.33789,-3.26172 l 0,-31.27539 -9.5625,0 z m 61.09765,0 0,52.3125 9.90039,0 0,-52.3125 -9.90039,0 z"
       style="font-style:normal;font-weight:normal;font-size:112.5px;line-height:125%;font-family:sans-serif;letter-spacing:0px;word-spacing:0px;fill:#eb7728;fill-opacity:1;stroke:none;stroke-width:1px;stroke-linecap:butt;stroke-linejoin:miter;stroke-opacity:1"
       inkscape:connector-curvature="0" />
    <path
       id="flowRoot4168"
       d="m 423.58398,173.05273 0,22.5 c 0,2.7 0.5,5.2504 1.5,7.65039 1.05,2.35001 2.44922,4.4004 4.19922,6.1504 1.75,1.75 3.80039,3.14921 6.15039,4.19921 2.4,1 4.95039,1.5 7.65039,1.5 l 0,-3 c -2.3,0 -4.45117,-0.42539 -6.45117,-1.27539 -2,-0.85 -3.75,-2.02343 -5.25,-3.52343 -1.5,-1.5 -2.67539,-3.25 -3.52539,-5.25 -0.85,-2 -1.27344,-4.15118 -1.27344,-6.45118 l 0,-3 16.5,0 0,-2.84961 -16.5,0 0,-16.65039 -3,0 z m 216.6504,0 0,22.5 c 0,2.7 0.5,5.2504 1.5,7.65039 1.04999,2.35 2.44921,4.4004 4.19921,6.1504 1.75,1.75 3.80039,3.14921 6.15039,4.19921 2.4,1 4.95039,1.5 7.6504,1.5 l 0,-3 c -2.3,0 -4.45118,-0.42539 -6.45118,-1.27539 -2,-0.85 -3.75,-2.02343 -5.25,-3.52343 -1.5,-1.5 -2.67539,-3.25 -3.52539,-5.25 -0.85,-2 -1.27343,-4.15118 -1.27343,-6.45118 l 0,-3 16.5,0 0,-2.84961 -16.5,0 0,-16.65039 -3,0 z m -170.19727,3 c -2.7,0 -5.25039,0.52618 -7.65039,1.57618 -2.35,1 -4.40039,2.375 -6.15039,4.125 -1.75,1.75 -3.14922,3.82461 -4.19922,6.22461 -1,2.35 -1.5,4.87421 -1.5,7.57421 0,2.7 0.5,5.2504 1.5,7.65039 1.05,2.35001 2.44922,4.4004 4.19922,6.1504 1.75,1.75 3.80039,3.14921 6.15039,4.19921 2.4,1 4.95039,1.5 7.65039,1.5 2.7,0 5.22422,-0.5 7.57422,-1.5 2.4,-1.05 4.47461,-2.44921 6.22461,-4.19921 1.75,-1.75 3.125,-3.8004 4.125,-6.1504 1.05,-2.39999 1.57617,-4.95039 1.57617,-7.65039 0,-2.7 -0.52617,-5.22421 -1.57617,-7.57421 -1,-2.4 -2.375,-4.47461 -4.125,-6.22461 -1.75,-1.75 -3.82461,-3.125 -6.22461,-4.125 -2.35,-1.05 -4.87422,-1.57618 -7.57422,-1.57618 z m 93.01758,0 c -2.7,0 -5.25039,0.52618 -7.65039,1.57618 -2.35,1 -4.40039,2.375 -6.15039,4.125 -1.75,1.75 -3.14922,3.82461 -4.19922,6.22461 -1,2.35 -1.5,4.87421 -1.5,7.57421 0,2.7 0.5,5.2504 1.5,7.65039 1.05,2.35 2.44922,4.4004 4.19922,6.1504 1.75,1.75 3.80039,3.14921 6.15039,4.19921 2.4,1 4.95039,1.5 7.65039,1.5 2.7,0 5.22422,-0.5 7.57422,-1.5 2.4,-1.05 4.47461,-2.44921 6.22461,-4.19921 1.75,-1.75 3.125,-3.8004 4.125,-6.1504 1.05,-2.4 1.57617,-4.95039 1.57617,-7.65039 l -3,0 c 0,2.3 -0.42539,4.47539 -1.27539,6.52539 -0.85,2 -2.02539,3.75 -3.52539,5.25 -1.5,1.5 -3.25,2.69961 -5.25,3.59961 -2,0.85 -4.14922,1.27539 -6.44922,1.27539 -2.3,0 -4.45117,-0.42539 -6.45117,-1.27539 -2,-0.9 -3.75,-2.09961 -5.25,-3.59961 -1.5,-1.5 -2.6754,-3.25 -3.5254,-5.25 -0.85,-2.04999 -1.27343,-4.22539 -1.27343,-6.52539 0,-1 0.0746,-2 0.22461,-3 l 35.54882,0 c -0.35,-2.35 -1.1,-4.52539 -2.25,-6.52539 -1.14999,-2 -2.57343,-3.72382 -4.27343,-5.17382 -1.7,-1.5 -3.65156,-2.67539 -5.85157,-3.5254 -2.14999,-0.84999 -4.44843,-1.27539 -6.89843,-1.27539 z m 49.43554,0 c -1.85,0 -3.62617,0.3004 -5.32617,0.90039 -1.7,0.55001 -3.27461,1.3504 -4.72461,2.4004 -1.4,1.05 -2.65,2.3 -3.75,3.75 -1.1,1.45 -1.99922,3.02461 -2.69922,4.7246 l 0,-11.02539 -3,0 0,37.5 3,0 0,-19.42382 c 0.05,-2.2 0.52383,-4.25039 1.42383,-6.15039 0.9,-1.95 2.09961,-3.6254 3.59961,-5.0254 1.5,-1.44999 3.22578,-2.575 5.17578,-3.375 1.95,-0.84999 4.05078,-1.27539 6.30078,-1.27539 2.3,0 4.44922,0.4254 6.44922,1.27539 2,0.85001 3.75,2.0254 5.25,3.5254 1.5,1.5 2.67539,3.25 3.52539,5.25 0.85,2 1.27539,4.14921 1.27539,6.44921 l 0,18.75 3,0 0,-18.75 c 0,-2.7 -0.52617,-5.22421 -1.57617,-7.57421 -1,-2.4 -2.375,-4.47461 -4.125,-6.22461 -1.75,-1.75 -3.82461,-3.125 -6.22461,-4.125 -2.35,-1.05 -4.87422,-1.57618 -7.57422,-1.57618 z m -96.01757,0.75 c -2.7,0 -5.25039,0.52618 -7.65039,1.57618 -2.35,1 -4.4004,2.375 -6.15039,4.125 -1.75001,1.75 -3.14922,3.82461 -4.19922,6.22461 -1,2.35 -1.5,4.87421 -1.5,7.57421 l 0,18 3,0 0,-18 c 0,-2.3 0.42343,-4.44921 1.27343,-6.44921 0.85,-2 2.02539,-3.75 3.52539,-5.25 1.5,-1.5 3.25,-2.67539 5.25,-3.5254 2,-0.84999 4.15118,-1.27539 6.45118,-1.27539 l 0,-3 z m 23.29101,0 c -2.7,0 -5.25039,0.52618 -7.65039,1.57618 -2.35,1 -4.40039,2.375 -6.15039,4.125 -1.75,1.75 -3.14922,3.82461 -4.19922,6.22461 -1,2.35 -1.5,4.87421 -1.5,7.57421 l 0,18 3,0 0,-18 c 0,-2.3 0.42344,-4.44921 1.27344,-6.44921 0.85,-2 2.02539,-3.75 3.52539,-5.25 1.5,-1.5 3.25,-2.67539 5.25,-3.5254 2,-0.84999 4.15117,-1.27539 6.45117,-1.27539 l 0,-3 z m 134.92383,0 0,3 c 0.15,1.9 0.57344,3.4504 1.27344,4.65039 0.7,1.15001 1.575,2.09961 2.625,2.84961 1.1,0.75 2.32578,1.35079 3.67578,1.80079 1.4,0.45 2.87578,0.84921 4.42578,1.19921 1.55,0.4 3.05,0.84961 4.5,1.34961 1.45,0.5 2.72422,1.15118 3.82422,1.95118 1.1,0.8 1.975,1.8 2.625,3 0.7,1.15 1.05078,2.62382 1.05078,4.42382 0,1.9 -0.375,3.55118 -1.125,4.95118 -0.75,1.35 -1.75,2.475 -3,3.375 -1.25,0.9 -2.67539,1.57539 -4.27539,2.02539 -1.55,0.45 -3.175,0.67382 -4.875,0.67382 -2.15,0 -4.15,-0.34882 -6,-1.04882 -1.85,-0.75 -3.475,-1.82657 -4.875,-3.22657 -1.35,-1.4 -2.42461,-3.12382 -3.22461,-5.17382 -0.75,-2.05 -1.125,-4.40079 -1.125,-7.05079 l -3,0 c 0,3.1 0.44961,5.85 1.34961,8.25 0.95,2.4 2.25039,4.4504 3.90039,6.15039 1.65,1.65001 3.57344,2.92422 5.77344,3.82422 2.25,0.85 4.65117,1.27539 7.20117,1.27539 2.05,0 4.05,-0.27421 6,-0.82421 1.95,-0.6 3.67383,-1.475 5.17383,-2.625 1.55,-1.2 2.77578,-2.67579 3.67578,-4.42579 0.95,-1.8 1.42578,-3.89882 1.42578,-6.29882 0,-2.35 -0.45156,-4.30157 -1.35156,-5.85157 -0.9,-1.55 -2.07344,-2.82422 -3.52344,-3.82422 -1.4,-0.99999 -3.00078,-1.77421 -4.80078,-2.32421 -1.75,-0.6 -3.52422,-1.12618 -5.32422,-1.57618 -1.05,-0.25 -2.10039,-0.52421 -3.15039,-0.82421 -1,-0.3 -1.90117,-0.70118 -2.70117,-1.20118 -0.8,-0.55 -1.47344,-1.24961 -2.02344,-2.09961 -0.55,-0.9 -0.90078,-2.025 -1.05078,-3.375 l 15.67578,0 0,-3 -18.75,0 z m -204.65039,2.09961 c 2.3,0 4.44922,0.45157 6.44922,1.35157 2,0.85 3.75,2.02343 5.25,3.52343 1.5,1.5 2.67539,3.27618 3.52539,5.32618 0.85,2 1.27539,4.14921 1.27539,6.44921 0,2.3 -0.42539,4.47539 -1.27539,6.52539 -0.85,2.00001 -2.02539,3.75 -3.52539,5.25 -1.5,1.5 -3.25,2.69961 -5.25,3.59961 -2,0.85 -4.14922,1.27539 -6.44922,1.27539 -2.3,0 -4.45117,-0.42539 -6.45117,-1.27539 -2,-0.9 -3.75,-2.09961 -5.25,-3.59961 -1.5,-1.5 -2.67539,-3.24999 -3.52539,-5.25 -0.85,-2.05 -1.27344,-4.22539 -1.27344,-6.52539 0,-2.3 0.42344,-4.44921 1.27344,-6.44921 0.85,-2.05 2.02539,-3.82618 3.52539,-5.32618 1.5,-1.5 3.25,-2.67343 5.25,-3.52343 2,-0.9 4.15117,-1.35157 6.45117,-1.35157 z m 93.01758,0 c 1.75,0 3.42344,0.27618 5.02343,0.82618 1.65,0.5 3.15,1.25 4.5,2.25 1.35001,0.95 2.5254,2.09921 3.5254,3.44921 1,1.3 1.80039,2.7254 2.40039,4.27539 l -30.90039,0 c 0.6,-1.55 1.40039,-2.97539 2.40039,-4.27539 1,-1.35 2.17539,-2.49921 3.52539,-3.44921 1.35,-1 2.82382,-1.75 4.42382,-2.25 1.6,-0.55 3.30157,-0.82618 5.10157,-0.82618 z"
       style="font-style:normal;font-weight:normal;font-size:40px;line-height:125%;font-family:sans-serif;letter-spacing:0px;word-spacing:0px;fill:#88984a;fill-opacity:1;stroke:none;stroke-width:1px;stroke-linecap:butt;stroke-linejoin:miter;stroke-opacity:1"
       inkscape:connector-curvature="0" />
  </g>
  <g
     id="g4331">
    <g
       style="fill:#ffffff"
       id="g4254">
      <ellipse
         style="fill:#ffffff;fill-opacity:1"
         id="path4220"
         cx="93.293312"
         cy="119.54278"
         rx="6.3436069"
         ry="5.7515368" />
      <ellipse
         style="fill:#ffffff;fill-opacity:1"
         id="path4222"
         cx="88.725914"
         cy="106.77098"
         rx="6.5127697"
         ry="5.32863" />
      <ellipse
         style="fill:#ffffff;fill-opacity:1"
         id="path4224"
         cx="106.65718"
         cy="99.496979"
         rx="3.975327"
         ry="6.3436069" />
      <ellipse
         style="fill:#ffffff;fill-opacity:1"
         id="path4226"
         cx="118.32941"
         cy="98.904915"
         rx="3.975327"
         ry="6.4281883" />
      <ellipse
         style="fill:#ffffff;fill-opacity:1"
         id="path4228"
         cx="133.63866"
         cy="119.03529"
         rx="7.2740026"
         ry="5.0748854" />
      <ellipse
         style="fill:#ffffff;fill-opacity:1"
         id="path4230"
         cx="136.85275"
         cy="106.60182"
         rx="4.9057226"
         ry="4.4828157" />
      <ellipse
         style="fill:#ffffff;fill-opacity:1"
         id="path4232"
         cx="141.1664"
         cy="138.31985"
         rx="5.32863"
         ry="3.5524199" />
      <ellipse
         style="fill:#ffffff;fill-opacity:1"
         id="path4234"
         cx="152.5849"
         cy="133.07581"
         rx="5.9207001"
         ry="4.3982344" />
      <ellipse
         style="fill:#ffffff;fill-opacity:1"
         id="path4236"
         cx="145.7338"
         cy="162.93304"
         rx="4.990304"
         ry="5.8361182" />
      <ellipse
         style="fill:#ffffff;fill-opacity:1"
         id="path4238"
         cx="137.10649"
         cy="171.56036"
         rx="4.8211412"
         ry="5.6669555" />
      <ellipse
         style="fill:#ffffff;fill-opacity:1"
         id="path4240"
         cx="112.74704"
         cy="167.07755"
         rx="4.6519785"
         ry="5.7515368" />
      <ellipse
         style="fill:#ffffff;fill-opacity:1"
         id="path4242"
         cx="107.24925"
         cy="179.00352"
         rx="4.2290711"
         ry="6.5127697" />
      <ellipse
         style="fill:#ffffff;fill-opacity:1"
         id="path4244"
         cx="88.13385"
         cy="170.62996"
         rx="6.4281883"
         ry="4.2290711" />
      <ellipse
         style="fill:#ffffff;fill-opacity:1"
         id="path4246"
         cx="92.616661"
         cy="159.12689"
         rx="6.0052814"
         ry="5.0748858" />
      <ellipse
         style="fill:#ffffff;fill-opacity:1"
         id="path4250"
         cx="84.666008"
         cy="138.40443"
         rx="6.5127697"
         ry="3.6370013" />
      <ellipse
         style="fill:#ffffff;fill-opacity:1"
         id="path4252"
         cx="72.909187"
         cy="132.48373"
         rx="6.2590256"
         ry="4.313653" />
    </g>
    <path
       sodipodi:nodetypes="ssssscsssssccsscsssssscsssssss"
       inkscape:connector-curvature="0"
       id="path9495-2"
       d="M 26.901244,88.177261 C 26.434017,88.114459 23.278298,87.499293 19.888535,86.810218 16.498771,86.121143 12.89542,85.47226 11.88109,85.368257 10.866758,85.264253 9.9726421,85.075186 9.8941664,84.94811 9.4845892,84.284879 14.096585,76.399236 16.770785,73.190388 l 1.437504,-1.724901 -2.166378,-1.583164 C 14.850403,69.011581 11.979628,66.630349 9.6624126,64.590692 7.3451969,62.551037 4.796688,60.414921 3.9990604,59.843768 3.2014328,59.272617 2.4366074,58.708762 2.2994495,58.590758 2.0235781,58.353416 7.3152981,54.762554 9.7757757,53.517465 14.376325,51.189421 18.261768,50.123518 22.158187,50.120564 c 1.906993,-0.0014 1.028683,0.447903 1.02968,0.705805 3.066058,3.957101 3.722903,7.375238 5.815088,9.709191 8.071063,9.003734 8.920618,9.527025 12.291038,12.444397 0.952001,0.824034 3.08116,1.513726 4.437899,3.037178 0,0.682091 -2.215888,4.884265 -3.465298,6.571533 -2.995324,4.045038 -6.714432,5.832179 -11.956039,5.745234 -1.407894,-0.02336 -2.942085,-0.09384 -3.409311,-0.156641 z M 45.8613,72.376886 C 37.835346,66.260957 31.979527,59.241387 29.25859,52.474645 23.742804,38.75735 28.317263,24.074066 43.336133,7.2879757 l 3.047579,-3.4061787 0.848192,1.509827 c 2.30041,4.0948513 4.043269,6.879815 8.18818,13.084128 7.302016,10.930026 9.166836,14.244043 10.84474,19.272434 1.305198,3.911458 1.716651,7.293903 1.284455,10.559146 -0.901629,6.811822 -4.355146,12.797184 -11.328221,19.63318 -1.793033,1.757785 -5.361538,4.867454 -7.12316,6.207273 -0.385556,0.293234 -0.890113,0.01718 -3.236598,-1.770899 z"
       style="fill:#ffffff" />
  </g>
  <g
     id="g4147">
    <path
       sodipodi:nodetypes="csssssssscsccsssssssssssssssssssssssssssssssssssssssscssssssssssssssssssssssssssssssssssssscssssssscsssscssssssssssssssssssssssssssssssssssssssssssssscsssssssssccsssssscssss"
       style="fill:#f0ae85"
       d="m 107.67427,188.13934 c -3.15259,-0.28259 -7.03714,-1.0792 -8.21915,-1.68551 -1.378529,-0.70712 -1.753419,-1.28515 -1.753419,-2.70349 0,-1.86739 0.816859,-4.10665 4.029919,-11.04726 1.53325,-3.31202 3.62437,-8.18185 4.64693,-10.82185 2.82821,-7.30174 2.99325,-7.69626 3.78426,-9.04603 0.51088,-0.87176 1.05578,-1.36202 1.77914,-1.60075 2.15092,-0.70987 3.66322,0.9277 5.54819,6.00779 1.36898,3.68946 6.32094,15.82808 7.95056,19.48899 2.26621,5.09103 2.54687,5.87112 2.55387,7.09833 0.006,1.02936 -0.15425,1.38412 -0.91283,2.02242 -1.69974,1.43025 -5.58952,2.17941 -12.47094,2.40186 -2.28751,0.0739 -5.40895,0.0224 -6.93653,-0.1145 z m 0.78392,-5.83561 c 1.99293,-1.03058 2.06045,-4.40619 0.13988,-6.99347 -1.23858,-1.66854 -1.78585,-1.78014 -2.90584,-0.5926 -1.09226,1.15812 -1.69053,2.82264 -1.69053,4.70338 0,1.04453 0.18121,1.4514 1.02,2.29019 1.12244,1.12245 2.08932,1.28915 3.43649,0.5925 z m 6.03342,-12.01728 c 1.60851,-0.8318 1.87689,-3.37271 0.61696,-5.84126 -1.70421,-3.33904 -4.19479,-2.55677 -5.12738,1.61048 -0.78369,3.5019 1.59863,5.73652 4.51042,4.23078 z m -25.789909,11.64031 c -2.20803,-0.77087 -7.17975,-4.33825 -10.682,-7.6647 -2.47446,-2.35024 -7.36817,-8.6184 -8.25821,-10.57759 -1.26862,-2.79257 -0.38193,-4.10261 3.87571,-5.72619 3.07894,-1.17411 7.19384,-2.85757 13.8645,-5.67215 9.37262,-3.95464 13.616539,-5.5549 14.731669,-5.5549 2.72442,0 3.0061,2.27994 0.91512,7.40696 -0.66015,1.61867 -2.50371,6.11554 -4.09681,9.99304 -1.593079,3.8775 -3.576229,8.7375 -4.406989,10.8 -1.78602,4.43411 -2.37212,5.61864 -3.22855,6.525 -0.60952,0.64506 -1.68203,0.83097 -2.71444,0.47053 z m 1.09216,-8.27053 c 2.33786,-2.04792 3.3853,-4.68866 2.38352,-6.00917 -0.3279,-0.43222 -0.65532,-0.49575 -1.71546,-0.33282 -2.65448,0.40795 -4.43273,1.83954 -5.08436,4.0932 -0.79667,2.75524 2.13436,4.24773 4.4163,2.24879 z m 3.32713,-12.12798 c 1.44849,-0.68736 3.68071,-3.74593 3.68071,-5.04328 0,-1.37747 -0.56255,-1.73985 -2.30627,-1.48565 -3.50341,0.51074 -5.19373,1.90966 -5.19373,4.29836 0,2.46677 1.48898,3.33637 3.81929,2.23057 z m 41.054659,19.62798 c -0.53132,-0.53625 -1.38029,-1.9875 -1.8866,-3.225 -3.78804,-9.2586 -8.93823,-21.55731 -9.85827,-23.54169 -1.47281,-3.17662 -1.7478,-5.82393 -0.71875,-6.91931 0.55321,-0.58886 0.99067,-0.739 2.15327,-0.739 1.6898,0 3.27335,0.58947 14.48639,5.39247 4.29,1.83758 9.285,3.95654 11.1,4.70879 6.4613,2.67799 7.26961,3.31104 6.91415,5.41502 -0.39336,2.32824 -7.15645,10.79703 -11.71415,14.66853 -3.42774,2.91167 -7.28665,5.19441 -8.805,5.2086 -0.40354,0.004 -1.11808,-0.41032 -1.67104,-0.96841 z m 5.86325,-7.30867 c 2.35507,-2.1313 -2.86483,-8.05169 -5.77306,-6.54779 -1.05265,0.54435 -1.33688,1.54907 -0.85298,3.01529 0.39715,1.20338 2.45367,3.62621 3.43533,4.04724 0.84432,0.36212 2.52061,0.0917 3.19071,-0.51474 z m 7.97223,-8.27624 c 0.81389,-0.75958 1.10968,-1.98771 0.72343,-3.00364 -0.44114,-1.16028 -2.33572,-2.84972 -3.83999,-3.42421 -3.4202,-1.30618 -4.48122,1.66705 -1.87755,5.26132 1.5274,2.10851 3.49286,2.5676 4.99411,1.16653 z M 66.440591,153.50696 c -1.96002,-0.97717 -2.92956,-5.05188 -3.14995,-13.23837 -0.24626,-9.1471 0.6195,-14.11679 2.79145,-16.02379 0.57227,-0.50246 1.29157,-0.91357 1.59845,-0.91357 1.53391,0 6.95915,2.03808 12.70415,4.77252 2.10815,1.0034 5.14565,2.28606 6.75,2.85033 7.21218,2.53665 10.45713,4.04795 12.179749,5.67259 2.41854,2.28097 0.85843,4.47652 -4.494489,6.32516 -2.22852,0.76962 -17.65683,7.11022 -22.30241,9.16565 -3.3336,1.47495 -5.09685,1.87812 -6.07695,1.38948 z m 20.49947,-12.59953 c 0.5564,-0.23309 1.34076,-0.77505 1.74302,-1.20435 1.38918,-1.48256 0.0257,-3.19018 -3.06327,-3.83632 -3.22185,-0.67395 -5.35103,0.7458 -4.88043,3.2543 0.3674,1.95841 3.58045,2.88406 6.20068,1.78637 z m -11.13836,-6.29593 c 2.526,-1.2459 2.52225,-2.70712 -0.0103,-4.00527 -2.14288,-1.09841 -5.88384,-0.79394 -6.59605,0.53684 -0.46536,0.86954 -0.34226,2.56169 0.23855,3.27896 1.05623,1.30438 3.93379,1.39 6.3678,0.18947 z m 79.949989,18.58673 c -0.66,-0.21608 -4.7775,-1.91157 -9.15,-3.76775 -4.3725,-1.85618 -10.44235,-4.37614 -13.48855,-5.59993 -5.86988,-2.35816 -7.38611,-3.24551 -7.70299,-4.50802 -0.59069,-2.3535 2.48534,-4.45925 11.36751,-7.78184 1.95603,-0.73169 5.94538,-2.3534 8.86522,-3.60378 6.27134,-2.68561 11.35793,-4.59768 12.24335,-4.60234 1.579,-0.008 3.23917,2.48027 3.984,5.97197 1.64007,7.68845 0.53274,21.01606 -1.97648,23.78871 -0.57896,0.63975 -2.36675,0.6842 -4.14206,0.10298 z M 143.44061,141.2052 c 1.24096,-0.51851 1.77686,-1.97949 1.32559,-3.61384 -0.5687,-2.05969 -1.49476,-2.33301 -5.05863,-1.49305 -3.16469,0.74589 -4.13836,2.23643 -2.48088,3.79785 0.90408,0.85168 3.04896,1.69826 4.35964,1.72075 0.45905,0.008 1.29348,-0.17739 1.85428,-0.41171 z m 12.36935,-6.29799 c 0.7206,-0.61983 0.84173,-0.94744 0.84173,-2.27651 0,-1.26961 -0.12904,-1.65697 -0.70823,-2.12597 -1.60926,-1.3031 -7.28849,-0.0287 -7.99388,1.79377 -0.23517,0.60762 0.61064,1.74417 1.728,2.32197 2.41203,1.24732 4.88141,1.36278 6.13238,0.28674 z m -55.17757,-4.39729 c -0.61562,-0.14682 -2.370619,-0.89596 -3.899989,-1.66477 -2.55597,-1.28485 -16.00084,-6.90854 -22.19508,-9.2837 -5.41262,-2.07545 -6.18232,-3.272 -4.43139,-6.88894 1.45907,-3.01405 7.94341,-10.36563 12.29577,-13.940263 3.21562,-2.64102 7.34338,-4.201152 8.88107,-3.356706 0.81344,0.446712 1.89243,2.692695 4.49453,9.355699 1.25653,3.2175 2.998269,7.6725 3.870539,9.9 0.87227,2.22749 2.36558,5.73749 3.31847,7.79999 2.0728,4.48651 2.40233,6.37616 1.28915,7.39262 -0.86893,0.79342 -2.15321,1.03661 -3.62307,0.68607 z m -4.379309,-8.57518 c 1.23699,-1.11947 0.0815,-4.1515 -2.21645,-5.81615 -1.28158,-0.92837 -2.42383,-1.10737 -3.61198,-0.56601 -1.81801,0.82834 -1.74374,2.67594 0.18482,4.59808 2.12729,2.12021 4.45803,2.85701 5.64361,1.78408 z m -4.25138,-12.4035 c 0.33,-0.33 0.6,-0.86616 0.6,-1.19145 0,-1.0335 -1.36315,-3.72074 -2.49759,-4.92359 -0.90174,-0.95612 -1.24176,-1.13198 -1.92387,-0.995 -2.37255,0.47642 -3.61098,1.64308 -3.254,3.06541 0.39295,1.56562 2.84418,3.71661 4.97352,4.36432 1.18773,0.3613 1.46278,0.31946 2.10194,-0.31969 z m 29.421769,20.20954 c -1.02842,-1.30742 -0.81347,-2.72989 1.00695,-6.66357 1.72425,-3.72587 6.05514,-14.22784 8.71366,-21.12973 0.87575,-2.27356 1.90825,-4.594891 2.29444,-5.15851 1.35171,-1.972689 2.90415,-2.134887 5.83115,-0.609231 2.69307,1.403724 5.33771,3.614655 9.65928,8.075191 4.01063,4.13959 6.15546,6.95276 7.0044,9.18698 1.35537,3.56705 0.95587,3.94672 -7.53166,7.15785 -4.56038,1.72536 -17.28559,7.00776 -19.09477,7.92649 -4.30159,2.18441 -6.81585,2.57176 -7.88345,1.21453 z m 12.42404,-8.50667 c 2.19137,-1.5077 3.02077,-3.23789 2.36783,-4.93944 -0.24153,-0.62941 -1.67113,-1.36343 -2.65545,-1.36343 -1.60397,0 -4.6582,3.79397 -4.6582,5.78642 0,1.96275 2.46898,2.22057 4.94582,0.51645 z m 2.94408,-11.58829 c 2.6113,-1.32024 4.2074,-3.37038 3.89524,-5.00332 -0.35079,-1.83503 -3.07862,-2.66068 -4.66577,-1.41224 -1.0942,0.86071 -2.51979,3.12613 -2.7545,4.37722 -0.41248,2.19874 1.2763,3.17527 3.52503,2.03834 z m -25.7297,15.36683 c -1.15861,-1.22849 -3.04756,-4.80637 -4.37218,-8.28142 -2.60407,-6.83155 -6.04246,-15.39746 -7.04465,-17.549994 -1.565619,-3.362673 -1.943359,-4.533312 -1.943359,-6.022452 0,-1.113936 0.13762,-1.399791 0.974999,-2.02515 1.31114,-0.979173 2.52205,-1.326264 6.075,-1.741311 3.99171,-0.466305 13.79613,-0.4533 16.79832,0.02229 7.15026,1.132683 7.80692,2.562231 4.48629,9.766629 -1.30856,2.839018 -6.64211,15.547918 -8.12063,19.349998 -1.98959,5.11629 -2.25919,5.68494 -3.14477,6.63296 -1.15445,1.23584 -2.45049,1.18288 -3.70902,-0.15154 z m -2.8654,-22.33006 c 1.62637,-1.62636 2.07427,-5.656317 0.79408,-7.144626 -0.9711,-1.128978 -2.58716,-1.144812 -3.69576,-0.03621 -1.44633,1.446333 -1.23378,5.716086 0.3641,7.313956 0.93254,0.93254 1.50178,0.90268 2.53758,-0.13312 z m 11.45043,0.52443 c 0.99511,-0.53256 1.74083,-2.59193 1.74819,-4.827765 0.006,-1.721499 -0.10223,-2.131302 -0.77008,-2.925 -0.81294,-0.96612 -1.6147,-1.139571 -2.93944,-0.635907 -2.15376,0.818859 -2.24989,5.601232 -0.15762,7.841012 0.89056,0.95334 1.20775,1.03532 2.11895,0.54766 z"
       id="path9503"
       inkscape:connector-curvature="0" />
    <path
       sodipodi:nodetypes="cssscsssscsssscssssssscsssscssssscsssscscsssccsssssssssscssssssssssssscsssssssscsssssssssssssssssscsscssssssssssssssssssccssscs"
       style="fill:#eb7728"
       d="m 103.80516,222.92323 c -6.269052,-0.79679 -9.796305,-1.47427 -14.061223,-2.70073 -6.770703,-1.94704 -13.73186,-5.00417 -19.83878,-8.71257 -1.8975,-1.15226 -3.72,-2.25667 -4.05,-2.45426 -1.59666,-0.95599 -3.750285,-2.72659 -3.538275,-2.90896 0.244725,-0.21053 1.742211,-0.55559 5.938275,-1.36832 1.32,-0.25567 3.345,-0.6628 4.5,-0.90474 1.155,-0.24195 2.8425,-0.59462 3.749999,-0.78373 2.537292,-0.52872 2.615775,-0.60383 2.836341,-2.71424 0.426993,-4.08554 1.402074,-11.7 1.519119,-11.86286 0.03254,-0.0453 0.925278,0.44388 1.98387,1.087 3.069132,1.86456 6.887133,3.66151 10.910671,5.13514 1.640766,0.60093 4.995854,1.52745 6.600003,1.82262 0.99,0.18216 2.34,0.49013 3,0.68438 1.58789,0.46733 15.0422,0.45999 17.09999,-0.009 0.825,-0.18816 2.3775,-0.49543 3.45,-0.68282 2.46765,-0.43114 3.7563,-0.75646 6.75,-1.70404 12.32279,-3.90043 21.5265,-10.51187 29.5828,-21.25064 2.36119,-3.14738 6.19481,-10.01973 7.34431,-13.1658 0.57029,-1.56084 1.30806,-2.43855 2.52289,-3.00145 0.4125,-0.19114 1.8975,-1.09747 3.3,-2.01407 2.96336,-1.93669 4.93068,-3.17314 7.10634,-4.4663 l 1.55634,-0.92506 4.74366,3.67151 c 2.60901,2.01934 5.45241,4.20387 6.31866,4.85454 0.86625,0.65066 1.575,1.28303 1.575,1.40526 0,0.40601 -2.63724,8.21752 -3.26477,9.67023 -0.33947,0.78588 -0.6155,1.49766 -0.6134,1.58174 0.002,0.0841 -0.45953,1.06109 -1.02584,2.17114 -0.56631,1.11004 -1.33538,2.69326 -1.70904,3.51826 -0.37366,0.825 -0.84378,1.7025 -1.04471,1.95 -0.20093,0.2475 -0.80784,1.26 -1.34869,2.25 -1.46066,2.67369 -3.41624,5.6074 -6.09503,9.14364 -1.31506,1.736 -2.47146,3.22386 -2.56977,3.30636 -0.0983,0.0825 -1.05453,1.1533 -2.12493,2.37957 -1.0704,1.22625 -2.60172,2.84625 -3.40294,3.6 -0.80121,0.75373 -2.22043,2.08773 -3.15381,2.96443 -1.98847,1.8677 -6.87382,5.61579 -8.14878,6.25182 -0.4875,0.24319 -0.96142,0.56362 -1.05315,0.71205 -0.68713,1.1118 -14.0649,7.80601 -16.52005,8.2666 -0.56744,0.10645 -1.10569,0.31324 -1.1961,0.45954 -0.0904,0.14629 -0.46693,0.26599 -0.83669,0.26599 -0.36976,0 -0.80055,0.11916 -0.9573,0.2648 -0.50358,0.4679 -8.83566,2.56456 -12.735,3.2046 -7.55515,1.24011 -17.76988,1.68615 -23.09999,1.0087 z m -52.702769,-26.0031 c -0.584361,-0.61875 -1.689048,-1.84722 -2.454855,-2.72993 -0.765807,-0.88272 -1.551756,-1.77495 -1.746552,-1.98275 -0.757152,-0.80768 -4.555668,-5.9783 -4.939968,-6.72438 -0.223221,-0.43337 -0.76209,-1.32794 -1.197483,-1.98794 -1.156863,-1.75365 -1.942368,-3.18775 -3.881049,-7.08566 -4.740741,-9.53173 -7.78406,-21.65303 -8.690693,-34.61434 -0.2763,-3.94999 -0.252984,-5.78282 0.13167,-10.35 0.453819,-5.38844 1.702167,-12.46686 2.698302,-15.3 0.261065,-0.7425 0.476627,-1.64578 0.47903,-2.00729 0.0024,-0.36151 0.139365,-0.74073 0.304365,-0.8427 0.165,-0.10198 0.3,-0.4029 0.3,-0.66873 0,-1.5252 5.351418,-13.256262 7.536618,-16.521312 0.474861,-0.70953 0.863382,-1.35528 0.863382,-1.43501 0,-0.38995 4.587897,-6.92788 6.719085,-9.57496 3.001269,-3.72777 9.396074,-10.15726 12.780914,-12.85024 5.917512,-4.70797 12.800433,-8.74877 19.478186,-11.435166 3.479256,-1.399674 4.396179,-1.581813 3.511992,-0.697626 -0.269598,0.269601 -0.490179,0.649677 -0.490179,0.844614 0,0.19494 -0.394701,1.115828 -0.877116,2.046428 -2.360196,4.55292 -7.522883,15.46653 -7.522883,15.90293 0,0.58351 0.01437,0.59289 4.649999,3.03042 1.98,1.04114 3.8025,2.05117 4.05,2.24452 0.2475,0.19335 1.02375,0.59988 1.725,0.9034 0.70125,0.30352 1.271769,0.6326 1.267821,0.73129 -0.004,0.0987 -1.205415,0.83391 -2.669919,1.63384 -8.306144,4.53686 -17.427236,13.795522 -21.915065,22.245602 -0.438156,0.825 -1.067592,1.9725 -1.398744,2.55 -2.345271,4.08994 -4.657743,11.26482 -5.828697,18.08462 -0.448859,2.61423 -0.437384,12.93371 0.01743,15.66537 0.978804,5.87894 2.268573,11.02274 3.460245,13.8 1.954242,4.55448 3.218388,7.22439 4.261554,9.00052 1.46442,2.49337 4.677624,6.88695 6.415749,8.7726 l 1.241613,1.34699 -0.203217,1.83994 c -0.111771,1.01198 -0.323583,2.85245 -0.4707,4.08995 -0.147114,1.2375 -0.412092,3.5325 -0.58884,5.1 -0.521613,4.62598 -0.62277,4.91119 -1.825866,5.14795 -0.571104,0.11239 -2.050863,0.42416 -3.288363,0.69282 -7.291641,1.58304 -10.478723,2.25923 -10.648457,2.25923 -0.105507,0 -0.669948,-0.50625 -1.254309,-1.125 z M 194.64825,145.59898 c -1.10379,-0.93712 -3.26379,-2.76753 -4.8,-4.06758 -1.5362,-1.30005 -3.35892,-2.8863 -4.05048,-3.525 -1.3944,-1.28781 -2.1607,-1.42854 -3.34631,-0.61455 -1.04295,0.71605 -9.66001,5.66626 -10.2611,5.89466 -0.39862,0.15147 -0.44645,-0.11144 -0.33596,-1.84661 0.21156,-3.32256 -0.63777,-11.27833 -1.72356,-16.14477 -1.40568,-6.30014 -4.52273,-13.85237 -7.57532,-18.35405 -0.4677,-0.68973 -0.85037,-1.32981 -0.85037,-1.4224 0,-0.65228 -6.10678,-7.747622 -8.50283,-9.879272 -12.65234,-11.25618 -26.82706,-16.62383 -42.19717,-15.97912 -4.48305,0.18805 -9.4512,0.77207 -10.12844,1.19062 -0.47922,0.29618 -1.375619,-0.13621 -5.628864,-2.71515 -0.32598,-0.19766 -1.402689,-0.7874 -2.392689,-1.31054 -0.99,-0.52314 -2.01313,-1.13767 -2.273623,-1.36562 -0.260493,-0.22796 -0.55701,-0.41446 -0.658926,-0.41446 -0.41058,0 -3.817452,-2.14811 -3.817452,-2.40699 0,-0.15303 0.70875,-1.5796 1.575,-3.17015 1.882815,-3.45709 2.817816,-5.20106 5.132344,-9.572865 0.960903,-1.814999 1.903596,-3.456185 2.094876,-3.647081 0.19128,-0.190896 0.955281,-0.435429 1.697781,-0.543408 0.7425,-0.107976 2.092504,-0.320712 3.000004,-0.47274 6.674889,-1.118214 16.421239,-1.530138 21.299989,-0.900234 1.2375,0.159777 3.3975,0.4392 4.8,0.620943 1.4025,0.181743 3.0225,0.4452 3.6,0.585456 0.5775,0.140259 1.7925,0.411645 2.7,0.603078 2.16772,0.457272 9.37006,2.708507 9.735,3.042866 0.15675,0.143616 0.46197,0.26112 0.67827,0.26112 1.03796,0 10.13403,4.546155 14.63367,7.313805 3.26291,2.00696 7.65244,5.14115 10.80306,7.71353 2.35094,1.91946 9.65919,9.46559 11.64183,12.02076 1.82532,2.3524 5.60817,7.8815 5.60817,8.197 0,0.0705 0.33769,0.62587 0.75042,1.23406 1.15874,1.7075 4.87195,9.510322 5.55393,11.670852 0.20834,0.66 0.49526,1.47 0.63762,1.8 0.25512,0.59143 1.04325,3.06703 1.91014,5.99999 0.83243,2.8164 1.67242,6.52758 1.99519,8.81505 0.17733,1.25673 0.45262,3.02745 0.61174,3.93495 0.36868,2.10261 0.67167,19.20708 0.33973,19.17885 -0.13682,-0.0116 -1.15187,-0.78789 -2.25567,-1.725 z"
       id="path9497"
       inkscape:connector-curvature="0" />
    <path
       style="fill:#88984a"
       d="m 26.075202,89.235854 c -0.495,-0.06648 -3.838305,-0.717702 -7.429566,-1.447161 C 15.054375,87.059231 11.23683,86.372318 10.162204,86.262221 9.087577,86.152121 8.1403123,85.951973 8.0571715,85.81745 7.6232483,85.115348 12.509394,76.767543 15.342557,73.370631 l 1.522954,-1.825995 -2.295154,-1.67595 C 13.308022,68.946912 10.2666,66.42612 7.8116413,64.266924 5.3566827,62.107728 2.6566828,59.846418 1.8116417,59.241792 0.9666006,58.637166 0.1563122,58.040265 0.0110006,57.915345 c -0.2922701,-0.251253 5.314006,-4.052567 7.9207418,-5.370629 4.8740216,-2.464485 8.9904266,-3.59286 13.1184596,-3.595986 2.020351,-0.0015 2.775395,0.09988 2.776452,0.372897 0.0026,0.666309 2.62369,6.212499 3.891951,8.235248 0.677479,1.080513 1.19125,2.005098 1.141714,2.054634 -0.04954,0.04954 -0.874763,-0.09234 -1.833837,-0.315288 -2.802954,-0.651567 -8.269144,-1.129023 -10.546777,-0.921228 -2.963285,0.270348 -5.364782,0.782334 -5.061575,1.0791 0.573833,0.561645 13.604041,3.452136 18.795878,4.16949 l 2.038806,0.281703 4.27988,4.14567 4.279881,4.14567 -3.168687,0.525906 c -7.046021,1.169424 -14.979211,4.710933 -18.318686,8.177771 l -1.05,1.090047 0.9,-0.21051 c 5.170224,-1.209315 17.401361,-5.243687 21.415484,-7.063775 1.054626,-0.478191 2.049495,-0.869439 2.210817,-0.869439 0.496719,0 3.223698,2.12868 3.223698,2.516421 0,0.722067 -2.347608,5.170523 -3.671286,6.956678 -3.173376,4.28211 -7.113558,6.173991 -12.666743,6.081951 -1.491583,-0.02472 -3.11697,-0.09934 -3.61197,-0.165822 z M 46.162301,72.509451 C 37.65926,66.035079 31.455354,58.604106 28.572676,51.440779 22.729014,36.91954 27.575393,21.375698 43.48703,3.605808 L 46.715768,0 47.614379,1.598315 c 2.437152,4.334842 4.283613,7.2830274 8.67491,13.850963 7.73607,11.570613 9.711741,15.078859 11.489385,20.401953 1.382781,4.140702 1.818693,7.721385 1.360806,11.177997 -0.955224,7.211049 -4.61403,13.547201 -12.001605,20.783843 -1.899617,1.860804 -5.680244,5.152725 -7.546583,6.571068 -0.408474,0.310419 -0.943023,0.01818 -3.428991,-1.874688 z m 3.600882,-16.812824 c -0.0089,-9.124545 -0.147207,-13.849002 -0.535668,-18.3 C 48.695678,31.302812 47.672396,22.21729 47.337758,20.617829 l -0.183861,-0.878798 -0.408483,0.728798 c -0.224664,0.40084 -0.821631,1.996365 -1.326591,3.545612 -3.949707,12.117906 -2.848563,30.903522 2.486931,42.427286 1.044516,2.255973 1.271574,2.564232 1.546833,2.1 0.216606,-0.365316 0.318666,-4.585728 0.310596,-12.8441 z"
       id="path9495"
       inkscape:connector-curvature="0" />
  </g>
</svg>
