<?xml version="1.0" encoding="UTF-8" standalone="no"?>
<!-- Created with Inkscape (http://www.inkscape.org/) -->

<svg
   xmlns:dc="http://purl.org/dc/elements/1.1/"
   xmlns:cc="http://creativecommons.org/ns#"
   xmlns:rdf="http://www.w3.org/1999/02/22-rdf-syntax-ns#"
   xmlns:svg="http://www.w3.org/2000/svg"
   xmlns="http://www.w3.org/2000/svg"
   xmlns:sodipodi="http://sodipodi.sourceforge.net/DTD/sodipodi-0.dtd"
   xmlns:inkscape="http://www.inkscape.org/namespaces/inkscape"
   id="svg9481"
   version="1.1"
   inkscape:version="0.91 r13725"
   width="197.04662"
   height="223.23961"
   viewBox="0 0 197.04662 223.23961"
   sodipodi:docname="grapefruit.svg"
   inkscape:export-filename="C:\Users\MAD\Desktop\g4147.png"
   inkscape:export-xdpi="206.41498"
   inkscape:export-ydpi="206.41498">
  <metadata
     id="metadata9487">
    <rdf:RDF>
      <cc:Work
         rdf:about="">
        <dc:format>image/svg+xml</dc:format>
        <dc:type
           rdf:resource="http://purl.org/dc/dcmitype/StillImage" />
        <dc:title />
      </cc:Work>
    </rdf:RDF>
  </metadata>
  <defs
     id="defs9485" />
  <sodipodi:namedview
     pagecolor="#ffffff"
     bordercolor="#666666"
     borderopacity="1"
     objecttolerance="10"
     gridtolerance="10"
     guidetolerance="10"
     inkscape:pageopacity="0"
     inkscape:pageshadow="2"
     inkscape:window-width="1920"
     inkscape:window-height="1137"
     id="namedview9483"
     showgrid="false"
     fit-margin-top="0"
     fit-margin-left="0"
     fit-margin-right="0"
     fit-margin-bottom="0"
     inkscape:zoom="5.9114633"
     inkscape:cx="122.88055"
     inkscape:cy="76.194155"
     inkscape:window-x="-8"
     inkscape:window-y="-8"
     inkscape:window-maximized="1"
     inkscape:current-layer="svg9481" />
  <g
     id="g4147">
    <path
       sodipodi:nodetypes="csssssssscsccsssssssssssssssssssssssssssssssssssssssscssssssssssssssssssssssssssssssssssssscssssssscsssscssssssssssssssssssssssssssssssssssssssssssssscsssssssssccsssssscssss"
       style="fill:#f0ae85"
       d="m 107.67427,188.13934 c -3.15259,-0.28259 -7.03714,-1.0792 -8.21915,-1.68551 -1.378529,-0.70712 -1.753419,-1.28515 -1.753419,-2.70349 0,-1.86739 0.816859,-4.10665 4.029919,-11.04726 1.53325,-3.31202 3.62437,-8.18185 4.64693,-10.82185 2.82821,-7.30174 2.99325,-7.69626 3.78426,-9.04603 0.51088,-0.87176 1.05578,-1.36202 1.77914,-1.60075 2.15092,-0.70987 3.66322,0.9277 5.54819,6.00779 1.36898,3.68946 6.32094,15.82808 7.95056,19.48899 2.26621,5.09103 2.54687,5.87112 2.55387,7.09833 0.006,1.02936 -0.15425,1.38412 -0.91283,2.02242 -1.69974,1.43025 -5.58952,2.17941 -12.47094,2.40186 -2.28751,0.0739 -5.40895,0.0224 -6.93653,-0.1145 z m 0.78392,-5.83561 c 1.99293,-1.03058 2.06045,-4.40619 0.13988,-6.99347 -1.23858,-1.66854 -1.78585,-1.78014 -2.90584,-0.5926 -1.09226,1.15812 -1.69053,2.82264 -1.69053,4.70338 0,1.04453 0.18121,1.4514 1.02,2.29019 1.12244,1.12245 2.08932,1.28915 3.43649,0.5925 z m 6.03342,-12.01728 c 1.60851,-0.8318 1.87689,-3.37271 0.61696,-5.84126 -1.70421,-3.33904 -4.19479,-2.55677 -5.12738,1.61048 -0.78369,3.5019 1.59863,5.73652 4.51042,4.23078 z m -25.789909,11.64031 c -2.20803,-0.77087 -7.17975,-4.33825 -10.682,-7.6647 -2.47446,-2.35024 -7.36817,-8.6184 -8.25821,-10.57759 -1.26862,-2.79257 -0.38193,-4.10261 3.87571,-5.72619 3.07894,-1.17411 7.19384,-2.85757 13.8645,-5.67215 9.37262,-3.95464 13.616539,-5.5549 14.731669,-5.5549 2.72442,0 3.0061,2.27994 0.91512,7.40696 -0.66015,1.61867 -2.50371,6.11554 -4.09681,9.99304 -1.593079,3.8775 -3.576229,8.7375 -4.406989,10.8 -1.78602,4.43411 -2.37212,5.61864 -3.22855,6.525 -0.60952,0.64506 -1.68203,0.83097 -2.71444,0.47053 z m 1.09216,-8.27053 c 2.33786,-2.04792 3.3853,-4.68866 2.38352,-6.00917 -0.3279,-0.43222 -0.65532,-0.49575 -1.71546,-0.33282 -2.65448,0.40795 -4.43273,1.83954 -5.08436,4.0932 -0.79667,2.75524 2.13436,4.24773 4.4163,2.24879 z m 3.32713,-12.12798 c 1.44849,-0.68736 3.68071,-3.74593 3.68071,-5.04328 0,-1.37747 -0.56255,-1.73985 -2.30627,-1.48565 -3.50341,0.51074 -5.19373,1.90966 -5.19373,4.29836 0,2.46677 1.48898,3.33637 3.81929,2.23057 z m 41.054659,19.62798 c -0.53132,-0.53625 -1.38029,-1.9875 -1.8866,-3.225 -3.78804,-9.2586 -8.93823,-21.55731 -9.85827,-23.54169 -1.47281,-3.17662 -1.7478,-5.82393 -0.71875,-6.91931 0.55321,-0.58886 0.99067,-0.739 2.15327,-0.739 1.6898,0 3.27335,0.58947 14.48639,5.39247 4.29,1.83758 9.285,3.95654 11.1,4.70879 6.4613,2.67799 7.26961,3.31104 6.91415,5.41502 -0.39336,2.32824 -7.15645,10.79703 -11.71415,14.66853 -3.42774,2.91167 -7.28665,5.19441 -8.805,5.2086 -0.40354,0.004 -1.11808,-0.41032 -1.67104,-0.96841 z m 5.86325,-7.30867 c 2.35507,-2.1313 -2.86483,-8.05169 -5.77306,-6.54779 -1.05265,0.54435 -1.33688,1.54907 -0.85298,3.01529 0.39715,1.20338 2.45367,3.62621 3.43533,4.04724 0.84432,0.36212 2.52061,0.0917 3.19071,-0.51474 z m 7.97223,-8.27624 c 0.81389,-0.75958 1.10968,-1.98771 0.72343,-3.00364 -0.44114,-1.16028 -2.33572,-2.84972 -3.83999,-3.42421 -3.4202,-1.30618 -4.48122,1.66705 -1.87755,5.26132 1.5274,2.10851 3.49286,2.5676 4.99411,1.16653 z M 66.440591,153.50696 c -1.96002,-0.97717 -2.92956,-5.05188 -3.14995,-13.23837 -0.24626,-9.1471 0.6195,-14.11679 2.79145,-16.02379 0.57227,-0.50246 1.29157,-0.91357 1.59845,-0.91357 1.53391,0 6.95915,2.03808 12.70415,4.77252 2.10815,1.0034 5.14565,2.28606 6.75,2.85033 7.21218,2.53665 10.45713,4.04795 12.179749,5.67259 2.41854,2.28097 0.85843,4.47652 -4.494489,6.32516 -2.22852,0.76962 -17.65683,7.11022 -22.30241,9.16565 -3.3336,1.47495 -5.09685,1.87812 -6.07695,1.38948 z m 20.49947,-12.59953 c 0.5564,-0.23309 1.34076,-0.77505 1.74302,-1.20435 1.38918,-1.48256 0.0257,-3.19018 -3.06327,-3.83632 -3.22185,-0.67395 -5.35103,0.7458 -4.88043,3.2543 0.3674,1.95841 3.58045,2.88406 6.20068,1.78637 z m -11.13836,-6.29593 c 2.526,-1.2459 2.52225,-2.70712 -0.0103,-4.00527 -2.14288,-1.09841 -5.88384,-0.79394 -6.59605,0.53684 -0.46536,0.86954 -0.34226,2.56169 0.23855,3.27896 1.05623,1.30438 3.93379,1.39 6.3678,0.18947 z m 79.949989,18.58673 c -0.66,-0.21608 -4.7775,-1.91157 -9.15,-3.76775 -4.3725,-1.85618 -10.44235,-4.37614 -13.48855,-5.59993 -5.86988,-2.35816 -7.38611,-3.24551 -7.70299,-4.50802 -0.59069,-2.3535 2.48534,-4.45925 11.36751,-7.78184 1.95603,-0.73169 5.94538,-2.3534 8.86522,-3.60378 6.27134,-2.68561 11.35793,-4.59768 12.24335,-4.60234 1.579,-0.008 3.23917,2.48027 3.984,5.97197 1.64007,7.68845 0.53274,21.01606 -1.97648,23.78871 -0.57896,0.63975 -2.36675,0.6842 -4.14206,0.10298 z M 143.44061,141.2052 c 1.24096,-0.51851 1.77686,-1.97949 1.32559,-3.61384 -0.5687,-2.05969 -1.49476,-2.33301 -5.05863,-1.49305 -3.16469,0.74589 -4.13836,2.23643 -2.48088,3.79785 0.90408,0.85168 3.04896,1.69826 4.35964,1.72075 0.45905,0.008 1.29348,-0.17739 1.85428,-0.41171 z m 12.36935,-6.29799 c 0.7206,-0.61983 0.84173,-0.94744 0.84173,-2.27651 0,-1.26961 -0.12904,-1.65697 -0.70823,-2.12597 -1.60926,-1.3031 -7.28849,-0.0287 -7.99388,1.79377 -0.23517,0.60762 0.61064,1.74417 1.728,2.32197 2.41203,1.24732 4.88141,1.36278 6.13238,0.28674 z m -55.17757,-4.39729 c -0.61562,-0.14682 -2.370619,-0.89596 -3.899989,-1.66477 -2.55597,-1.28485 -16.00084,-6.90854 -22.19508,-9.2837 -5.41262,-2.07545 -6.18232,-3.272 -4.43139,-6.88894 1.45907,-3.01405 7.94341,-10.36563 12.29577,-13.940263 3.21562,-2.64102 7.34338,-4.201152 8.88107,-3.356706 0.81344,0.446712 1.89243,2.692695 4.49453,9.355699 1.25653,3.2175 2.998269,7.6725 3.870539,9.9 0.87227,2.22749 2.36558,5.73749 3.31847,7.79999 2.0728,4.48651 2.40233,6.37616 1.28915,7.39262 -0.86893,0.79342 -2.15321,1.03661 -3.62307,0.68607 z m -4.379309,-8.57518 c 1.23699,-1.11947 0.0815,-4.1515 -2.21645,-5.81615 -1.28158,-0.92837 -2.42383,-1.10737 -3.61198,-0.56601 -1.81801,0.82834 -1.74374,2.67594 0.18482,4.59808 2.12729,2.12021 4.45803,2.85701 5.64361,1.78408 z m -4.25138,-12.4035 c 0.33,-0.33 0.6,-0.86616 0.6,-1.19145 0,-1.0335 -1.36315,-3.72074 -2.49759,-4.92359 -0.90174,-0.95612 -1.24176,-1.13198 -1.92387,-0.995 -2.37255,0.47642 -3.61098,1.64308 -3.254,3.06541 0.39295,1.56562 2.84418,3.71661 4.97352,4.36432 1.18773,0.3613 1.46278,0.31946 2.10194,-0.31969 z m 29.421769,20.20954 c -1.02842,-1.30742 -0.81347,-2.72989 1.00695,-6.66357 1.72425,-3.72587 6.05514,-14.22784 8.71366,-21.12973 0.87575,-2.27356 1.90825,-4.594891 2.29444,-5.15851 1.35171,-1.972689 2.90415,-2.134887 5.83115,-0.609231 2.69307,1.403724 5.33771,3.614655 9.65928,8.075191 4.01063,4.13959 6.15546,6.95276 7.0044,9.18698 1.35537,3.56705 0.95587,3.94672 -7.53166,7.15785 -4.56038,1.72536 -17.28559,7.00776 -19.09477,7.92649 -4.30159,2.18441 -6.81585,2.57176 -7.88345,1.21453 z m 12.42404,-8.50667 c 2.19137,-1.5077 3.02077,-3.23789 2.36783,-4.93944 -0.24153,-0.62941 -1.67113,-1.36343 -2.65545,-1.36343 -1.60397,0 -4.6582,3.79397 -4.6582,5.78642 0,1.96275 2.46898,2.22057 4.94582,0.51645 z m 2.94408,-11.58829 c 2.6113,-1.32024 4.2074,-3.37038 3.89524,-5.00332 -0.35079,-1.83503 -3.07862,-2.66068 -4.66577,-1.41224 -1.0942,0.86071 -2.51979,3.12613 -2.7545,4.37722 -0.41248,2.19874 1.2763,3.17527 3.52503,2.03834 z m -25.7297,15.36683 c -1.15861,-1.22849 -3.04756,-4.80637 -4.37218,-8.28142 -2.60407,-6.83155 -6.04246,-15.39746 -7.04465,-17.549994 -1.565619,-3.362673 -1.943359,-4.533312 -1.943359,-6.022452 0,-1.113936 0.13762,-1.399791 0.974999,-2.02515 1.31114,-0.979173 2.52205,-1.326264 6.075,-1.741311 3.99171,-0.466305 13.79613,-0.4533 16.79832,0.02229 7.15026,1.132683 7.80692,2.562231 4.48629,9.766629 -1.30856,2.839018 -6.64211,15.547918 -8.12063,19.349998 -1.98959,5.11629 -2.25919,5.68494 -3.14477,6.63296 -1.15445,1.23584 -2.45049,1.18288 -3.70902,-0.15154 z m -2.8654,-22.33006 c 1.62637,-1.62636 2.07427,-5.656317 0.79408,-7.144626 -0.9711,-1.128978 -2.58716,-1.144812 -3.69576,-0.03621 -1.44633,1.446333 -1.23378,5.716086 0.3641,7.313956 0.93254,0.93254 1.50178,0.90268 2.53758,-0.13312 z m 11.45043,0.52443 c 0.99511,-0.53256 1.74083,-2.59193 1.74819,-4.827765 0.006,-1.721499 -0.10223,-2.131302 -0.77008,-2.925 -0.81294,-0.96612 -1.6147,-1.139571 -2.93944,-0.635907 -2.15376,0.818859 -2.24989,5.601232 -0.15762,7.841012 0.89056,0.95334 1.20775,1.03532 2.11895,0.54766 z"
       id="path9503"
       inkscape:connector-curvature="0" />
    <path
       sodipodi:nodetypes="cssscsssscsssscssssssscsssscssssscsssscscsssccsssssssssscssssssssssssscsssssssscsssssssssssssssssscsscssssssssssssssssssccssscs"
       style="fill:#eb7728"
       d="m 103.80516,222.92323 c -6.269052,-0.79679 -9.796305,-1.47427 -14.061223,-2.70073 -6.770703,-1.94704 -13.73186,-5.00417 -19.83878,-8.71257 -1.8975,-1.15226 -3.72,-2.25667 -4.05,-2.45426 -1.59666,-0.95599 -3.750285,-2.72659 -3.538275,-2.90896 0.244725,-0.21053 1.742211,-0.55559 5.938275,-1.36832 1.32,-0.25567 3.345,-0.6628 4.5,-0.90474 1.155,-0.24195 2.8425,-0.59462 3.749999,-0.78373 2.537292,-0.52872 2.615775,-0.60383 2.836341,-2.71424 0.426993,-4.08554 1.402074,-11.7 1.519119,-11.86286 0.03254,-0.0453 0.925278,0.44388 1.98387,1.087 3.069132,1.86456 6.887133,3.66151 10.910671,5.13514 1.640766,0.60093 4.995854,1.52745 6.600003,1.82262 0.99,0.18216 2.34,0.49013 3,0.68438 1.58789,0.46733 15.0422,0.45999 17.09999,-0.009 0.825,-0.18816 2.3775,-0.49543 3.45,-0.68282 2.46765,-0.43114 3.7563,-0.75646 6.75,-1.70404 12.32279,-3.90043 21.5265,-10.51187 29.5828,-21.25064 2.36119,-3.14738 6.19481,-10.01973 7.34431,-13.1658 0.57029,-1.56084 1.30806,-2.43855 2.52289,-3.00145 0.4125,-0.19114 1.8975,-1.09747 3.3,-2.01407 2.96336,-1.93669 4.93068,-3.17314 7.10634,-4.4663 l 1.55634,-0.92506 4.74366,3.67151 c 2.60901,2.01934 5.45241,4.20387 6.31866,4.85454 0.86625,0.65066 1.575,1.28303 1.575,1.40526 0,0.40601 -2.63724,8.21752 -3.26477,9.67023 -0.33947,0.78588 -0.6155,1.49766 -0.6134,1.58174 0.002,0.0841 -0.45953,1.06109 -1.02584,2.17114 -0.56631,1.11004 -1.33538,2.69326 -1.70904,3.51826 -0.37366,0.825 -0.84378,1.7025 -1.04471,1.95 -0.20093,0.2475 -0.80784,1.26 -1.34869,2.25 -1.46066,2.67369 -3.41624,5.6074 -6.09503,9.14364 -1.31506,1.736 -2.47146,3.22386 -2.56977,3.30636 -0.0983,0.0825 -1.05453,1.1533 -2.12493,2.37957 -1.0704,1.22625 -2.60172,2.84625 -3.40294,3.6 -0.80121,0.75373 -2.22043,2.08773 -3.15381,2.96443 -1.98847,1.8677 -6.87382,5.61579 -8.14878,6.25182 -0.4875,0.24319 -0.96142,0.56362 -1.05315,0.71205 -0.68713,1.1118 -14.0649,7.80601 -16.52005,8.2666 -0.56744,0.10645 -1.10569,0.31324 -1.1961,0.45954 -0.0904,0.14629 -0.46693,0.26599 -0.83669,0.26599 -0.36976,0 -0.80055,0.11916 -0.9573,0.2648 -0.50358,0.4679 -8.83566,2.56456 -12.735,3.2046 -7.55515,1.24011 -17.76988,1.68615 -23.09999,1.0087 z m -52.702769,-26.0031 c -0.584361,-0.61875 -1.689048,-1.84722 -2.454855,-2.72993 -0.765807,-0.88272 -1.551756,-1.77495 -1.746552,-1.98275 -0.757152,-0.80768 -4.555668,-5.9783 -4.939968,-6.72438 -0.223221,-0.43337 -0.76209,-1.32794 -1.197483,-1.98794 -1.156863,-1.75365 -1.942368,-3.18775 -3.881049,-7.08566 -4.740741,-9.53173 -7.78406,-21.65303 -8.690693,-34.61434 -0.2763,-3.94999 -0.252984,-5.78282 0.13167,-10.35 0.453819,-5.38844 1.702167,-12.46686 2.698302,-15.3 0.261065,-0.7425 0.476627,-1.64578 0.47903,-2.00729 0.0024,-0.36151 0.139365,-0.74073 0.304365,-0.8427 0.165,-0.10198 0.3,-0.4029 0.3,-0.66873 0,-1.5252 5.351418,-13.256262 7.536618,-16.521312 0.474861,-0.70953 0.863382,-1.35528 0.863382,-1.43501 0,-0.38995 4.587897,-6.92788 6.719085,-9.57496 3.001269,-3.72777 9.396074,-10.15726 12.780914,-12.85024 5.917512,-4.70797 12.800433,-8.74877 19.478186,-11.435166 3.479256,-1.399674 4.396179,-1.581813 3.511992,-0.697626 -0.269598,0.269601 -0.490179,0.649677 -0.490179,0.844614 0,0.19494 -0.394701,1.115828 -0.877116,2.046428 -2.360196,4.55292 -7.522883,15.46653 -7.522883,15.90293 0,0.58351 0.01437,0.59289 4.649999,3.03042 1.98,1.04114 3.8025,2.05117 4.05,2.24452 0.2475,0.19335 1.02375,0.59988 1.725,0.9034 0.70125,0.30352 1.271769,0.6326 1.267821,0.73129 -0.004,0.0987 -1.205415,0.83391 -2.669919,1.63384 -8.306144,4.53686 -17.427236,13.795522 -21.915065,22.245602 -0.438156,0.825 -1.067592,1.9725 -1.398744,2.55 -2.345271,4.08994 -4.657743,11.26482 -5.828697,18.08462 -0.448859,2.61423 -0.437384,12.93371 0.01743,15.66537 0.978804,5.87894 2.268573,11.02274 3.460245,13.8 1.954242,4.55448 3.218388,7.22439 4.261554,9.00052 1.46442,2.49337 4.677624,6.88695 6.415749,8.7726 l 1.241613,1.34699 -0.203217,1.83994 c -0.111771,1.01198 -0.323583,2.85245 -0.4707,4.08995 -0.147114,1.2375 -0.412092,3.5325 -0.58884,5.1 -0.521613,4.62598 -0.62277,4.91119 -1.825866,5.14795 -0.571104,0.11239 -2.050863,0.42416 -3.288363,0.69282 -7.291641,1.58304 -10.478723,2.25923 -10.648457,2.25923 -0.105507,0 -0.669948,-0.50625 -1.254309,-1.125 z M 194.64825,145.59898 c -1.10379,-0.93712 -3.26379,-2.76753 -4.8,-4.06758 -1.5362,-1.30005 -3.35892,-2.8863 -4.05048,-3.525 -1.3944,-1.28781 -2.1607,-1.42854 -3.34631,-0.61455 -1.04295,0.71605 -9.66001,5.66626 -10.2611,5.89466 -0.39862,0.15147 -0.44645,-0.11144 -0.33596,-1.84661 0.21156,-3.32256 -0.63777,-11.27833 -1.72356,-16.14477 -1.40568,-6.30014 -4.52273,-13.85237 -7.57532,-18.35405 -0.4677,-0.68973 -0.85037,-1.32981 -0.85037,-1.4224 0,-0.65228 -6.10678,-7.747622 -8.50283,-9.879272 -12.65234,-11.25618 -26.82706,-16.62383 -42.19717,-15.97912 -4.48305,0.18805 -9.4512,0.77207 -10.12844,1.19062 -0.47922,0.29618 -1.375619,-0.13621 -5.628864,-2.71515 -0.32598,-0.19766 -1.402689,-0.7874 -2.392689,-1.31054 -0.99,-0.52314 -2.01313,-1.13767 -2.273623,-1.36562 -0.260493,-0.22796 -0.55701,-0.41446 -0.658926,-0.41446 -0.41058,0 -3.817452,-2.14811 -3.817452,-2.40699 0,-0.15303 0.70875,-1.5796 1.575,-3.17015 1.882815,-3.45709 2.817816,-5.20106 5.132344,-9.572865 0.960903,-1.814999 1.903596,-3.456185 2.094876,-3.647081 0.19128,-0.190896 0.955281,-0.435429 1.697781,-0.543408 0.7425,-0.107976 2.092504,-0.320712 3.000004,-0.47274 6.674889,-1.118214 16.421239,-1.530138 21.299989,-0.900234 1.2375,0.159777 3.3975,0.4392 4.8,0.620943 1.4025,0.181743 3.0225,0.4452 3.6,0.585456 0.5775,0.140259 1.7925,0.411645 2.7,0.603078 2.16772,0.457272 9.37006,2.708507 9.735,3.042866 0.15675,0.143616 0.46197,0.26112 0.67827,0.26112 1.03796,0 10.13403,4.546155 14.63367,7.313805 3.26291,2.00696 7.65244,5.14115 10.80306,7.71353 2.35094,1.91946 9.65919,9.46559 11.64183,12.02076 1.82532,2.3524 5.60817,7.8815 5.60817,8.197 0,0.0705 0.33769,0.62587 0.75042,1.23406 1.15874,1.7075 4.87195,9.510322 5.55393,11.670852 0.20834,0.66 0.49526,1.47 0.63762,1.8 0.25512,0.59143 1.04325,3.06703 1.91014,5.99999 0.83243,2.8164 1.67242,6.52758 1.99519,8.81505 0.17733,1.25673 0.45262,3.02745 0.61174,3.93495 0.36868,2.10261 0.67167,19.20708 0.33973,19.17885 -0.13682,-0.0116 -1.15187,-0.78789 -2.25567,-1.725 z"
       id="path9497"
       inkscape:connector-curvature="0" />
    <path
       style="fill:#88984a"
       d="m 26.075202,89.235854 c -0.495,-0.06648 -3.838305,-0.717702 -7.429566,-1.447161 C 15.054375,87.059231 11.23683,86.372318 10.162204,86.262221 9.087577,86.152121 8.1403123,85.951973 8.0571715,85.81745 7.6232483,85.115348 12.509394,76.767543 15.342557,73.370631 l 1.522954,-1.825995 -2.295154,-1.67595 C 13.308022,68.946912 10.2666,66.42612 7.8116413,64.266924 5.3566827,62.107728 2.6566828,59.846418 1.8116417,59.241792 0.9666006,58.637166 0.1563122,58.040265 0.0110006,57.915345 c -0.2922701,-0.251253 5.314006,-4.052567 7.9207418,-5.370629 4.8740216,-2.464485 8.9904266,-3.59286 13.1184596,-3.595986 2.020351,-0.0015 2.775395,0.09988 2.776452,0.372897 0.0026,0.666309 2.62369,6.212499 3.891951,8.235248 0.677479,1.080513 1.19125,2.005098 1.141714,2.054634 -0.04954,0.04954 -0.874763,-0.09234 -1.833837,-0.315288 -2.802954,-0.651567 -8.269144,-1.129023 -10.546777,-0.921228 -2.963285,0.270348 -5.364782,0.782334 -5.061575,1.0791 0.573833,0.561645 13.604041,3.452136 18.795878,4.16949 l 2.038806,0.281703 4.27988,4.14567 4.279881,4.14567 -3.168687,0.525906 c -7.046021,1.169424 -14.979211,4.710933 -18.318686,8.177771 l -1.05,1.090047 0.9,-0.21051 c 5.170224,-1.209315 17.401361,-5.243687 21.415484,-7.063775 1.054626,-0.478191 2.049495,-0.869439 2.210817,-0.869439 0.496719,0 3.223698,2.12868 3.223698,2.516421 0,0.722067 -2.347608,5.170523 -3.671286,6.956678 -3.173376,4.28211 -7.113558,6.173991 -12.666743,6.081951 -1.491583,-0.02472 -3.11697,-0.09934 -3.61197,-0.165822 z M 46.162301,72.509451 C 37.65926,66.035079 31.455354,58.604106 28.572676,51.440779 22.729014,36.91954 27.575393,21.375698 43.48703,3.605808 L 46.715768,0 47.614379,1.598315 c 2.437152,4.334842 4.283613,7.2830274 8.67491,13.850963 7.73607,11.570613 9.711741,15.078859 11.489385,20.401953 1.382781,4.140702 1.818693,7.721385 1.360806,11.177997 -0.955224,7.211049 -4.61403,13.547201 -12.001605,20.783843 -1.899617,1.860804 -5.680244,5.152725 -7.546583,6.571068 -0.408474,0.310419 -0.943023,0.01818 -3.428991,-1.874688 z m 3.600882,-16.812824 c -0.0089,-9.124545 -0.147207,-13.849002 -0.535668,-18.3 C 48.695678,31.302812 47.672396,22.21729 47.337758,20.617829 l -0.183861,-0.878798 -0.408483,0.728798 c -0.224664,0.40084 -0.821631,1.996365 -1.326591,3.545612 -3.949707,12.117906 -2.848563,30.903522 2.486931,42.427286 1.044516,2.255973 1.271574,2.564232 1.546833,2.1 0.216606,-0.365316 0.318666,-4.585728 0.310596,-12.8441 z"
       id="path9495"
       inkscape:connector-curvature="0" />
  </g>
</svg>
